<svg xmlns="http://www.w3.org/2000/svg" xmlns:xlink="http://www.w3.org/1999/xlink" width="500" zoomAndPan="magnify" viewBox="0 0 375 374.999991" height="500" preserveAspectRatio="xMidYMid meet" version="1.0"><defs><g/><clipPath id="762bf3c74b"><path d="M 41.757812 154.753906 L 107 154.753906 L 107 220 L 41.757812 220 Z M 41.757812 154.753906 " clip-rule="nonzero"/></clipPath></defs><rect x="-37.5" width="450" fill="#ffffff" y="-37.499999" height="449.999989" fill-opacity="1"/><rect x="-37.5" width="450" fill="#ffffff" y="-37.499999" height="449.999989" fill-opacity="1"/><rect x="-37.5" width="450" fill="#3b322c" y="-37.499999" height="449.999989" fill-opacity="1"/><g fill="#94e8b4" fill-opacity="1"><g transform="translate(147.877305, 188.399959)"><g><path d="M -0.429688 3.222656 L -0.429688 3.480469 C 4.230469 3.480469 8.050781 0.601562 8.050781 -3.648438 L 8.050781 -16.039062 C 8.050781 -17.457031 9.019531 -18.316406 10.585938 -18.316406 L 10.585938 -18.507812 L 1.074219 -18.507812 L 1.074219 -18.316406 C 2.640625 -18.316406 3.605469 -17.457031 3.605469 -16.039062 L 3.605469 -6.550781 L 3.628906 -2.253906 C 3.648438 1.460938 3.308594 3.222656 -0.429688 3.222656 Z M -0.429688 3.222656 "/></g></g></g><g fill="#94e8b4" fill-opacity="1"><g transform="translate(159.53484, 188.399959)"><g><path d="M 1.074219 -0.191406 L 1.074219 0 L 16.621094 0 L 18.035156 -4.851562 L 17.84375 -4.851562 C 16.8125 -1.738281 14.277344 -0.191406 10.585938 -0.191406 C 9.019531 -0.191406 8.050781 -1.050781 8.050781 -2.46875 L 8.050781 -9.621094 L 11.273438 -9.621094 C 13.25 -9.554688 13.441406 -7.773438 13.441406 -7.277344 L 13.441406 -7.171875 L 13.636719 -7.171875 L 13.636719 -12.238281 L 13.441406 -12.238281 L 13.441406 -12.132812 C 13.441406 -11.636719 13.25 -9.855469 11.273438 -9.8125 L 8.050781 -9.8125 L 8.074219 -18.316406 L 9.621094 -18.316406 C 14.816406 -18.316406 15.933594 -15.136719 16.148438 -14.042969 L 16.210938 -13.65625 L 16.382812 -13.742188 L 15.652344 -18.507812 L 1.074219 -18.507812 L 1.074219 -18.316406 C 2.640625 -18.316406 3.605469 -17.457031 3.605469 -16.039062 L 3.605469 -2.46875 C 3.605469 -1.050781 2.640625 -0.191406 1.074219 -0.191406 Z M 1.074219 -0.191406 "/></g></g></g><g fill="#94e8b4" fill-opacity="1"><g transform="translate(178.642031, 188.399959)"><g><path d="M 1.074219 -0.191406 L 1.074219 0 L 6.140625 0 L 6.140625 -0.191406 L 6.078125 -0.191406 C 5.710938 -0.214844 3.863281 -0.429688 5.496094 -4.015625 L 6.207031 -5.5625 L 13.335938 -5.5625 L 14.75 -2.449219 C 15.695312 -0.386719 14.128906 -0.214844 13.699219 -0.191406 L 13.59375 -0.191406 L 13.59375 0 L 22.308594 0 L 22.308594 -0.191406 L 22.203125 -0.191406 C 21.773438 -0.214844 20.121094 -0.40625 19.195312 -2.449219 L 11.875 -18.507812 L 9.664062 -13.613281 L 5.28125 -4.015625 C 3.84375 -0.816406 2.167969 -0.277344 1.4375 -0.191406 Z M 13.25 -5.753906 L 6.292969 -5.753906 L 9.769531 -13.378906 Z M 13.25 -5.753906 "/></g></g></g><g fill="#94e8b4" fill-opacity="1"><g transform="translate(202.021508, 188.399959)"><g><path d="M 4.035156 -15.394531 L 17.585938 0 L 17.800781 0 L 17.800781 -16.125 C 17.863281 -18.421875 20.25 -18.292969 20.25 -18.292969 L 20.25 -18.507812 L 15.160156 -18.507812 L 15.160156 -18.316406 C 15.160156 -18.292969 17.542969 -18.421875 17.609375 -16.125 L 17.609375 -6.613281 L 7.105469 -18.507812 L 1.074219 -18.507812 L 1.074219 -18.292969 C 2.597656 -18.292969 3.457031 -17.523438 3.5 -15.695312 L 3.5 -2.363281 C 3.457031 -0.386719 1.652344 -0.214844 1.179688 -0.191406 L 1.074219 -0.191406 L 1.074219 0 L 6.140625 0 L 6.140625 -0.191406 L 6.035156 -0.191406 C 5.539062 -0.214844 3.757812 -0.386719 3.691406 -2.363281 L 3.691406 -15.761719 Z M 4.035156 -15.394531 "/></g></g></g><g fill="#94e8b4" fill-opacity="1"><g transform="translate(223.339985, 188.399959)"><g/></g></g><g fill="#94e8b4" fill-opacity="1"><g transform="translate(236.221236, 188.399959)"><g><path d="M 1.074219 -0.191406 L 1.074219 0 L 11.144531 0 C 14.730469 0 17.90625 -1.417969 17.90625 -5.003906 C 17.90625 -8.308594 15.203125 -9.707031 12.175781 -9.878906 C 14.773438 -10.308594 17.113281 -11.316406 17.113281 -14.171875 C 17.113281 -17.628906 13.851562 -18.507812 10.371094 -18.507812 L 1.074219 -18.507812 L 1.074219 -18.316406 L 1.332031 -18.316406 C 1.976562 -18.292969 3.605469 -18.015625 3.605469 -16.039062 L 3.605469 -2.46875 C 3.605469 -0.515625 2.019531 -0.234375 1.351562 -0.191406 Z M 10.371094 -9.921875 L 8.050781 -9.921875 L 8.050781 -18.316406 L 10.371094 -18.316406 C 11.917969 -18.316406 12.734375 -16.769531 12.734375 -14.171875 C 12.734375 -11.550781 11.917969 -9.921875 10.371094 -9.921875 Z M 11.144531 -0.191406 L 10.199219 -0.191406 C 9.640625 -0.214844 8.050781 -0.449219 8.050781 -2.425781 L 8.050781 -9.707031 L 11.144531 -9.707031 C 12.691406 -9.707031 13.527344 -7.621094 13.527344 -5.003906 C 13.527344 -2.382812 12.691406 -0.191406 11.144531 -0.191406 Z M 11.144531 -0.191406 "/></g></g></g><g fill="#94e8b4" fill-opacity="1"><g transform="translate(255.199613, 188.399959)"><g><path d="M 10.480469 0 C 15.675781 0 19.882812 -4.207031 19.882812 -9.40625 C 19.882812 -14.578125 15.652344 -18.808594 10.480469 -18.808594 C 5.304688 -18.808594 1.074219 -14.578125 1.074219 -9.40625 C 1.074219 -4.292969 5.238281 0 10.480469 0 Z M 10.480469 -0.257812 C 9.148438 -0.257812 5.453125 -0.945312 5.453125 -9.40625 C 5.476562 -17.671875 9.148438 -18.550781 10.480469 -18.550781 C 11.832031 -18.550781 15.503906 -17.671875 15.503906 -9.40625 C 15.503906 -0.945312 11.832031 -0.257812 10.480469 -0.257812 Z M 10.480469 -0.257812 "/></g></g></g><g fill="#94e8b4" fill-opacity="1"><g transform="translate(276.153126, 188.399959)"><g><path d="M 1.074219 -0.191406 L 1.074219 0 L 10.351562 0 L 10.351562 -0.191406 C 8.738281 -0.191406 8.050781 -0.902344 8.050781 -2.425781 L 8.050781 -8.847656 L 10.5 -8.847656 C 12.046875 -8.847656 11.59375 -7.878906 12.882812 -4.574219 C 14.214844 -1.160156 15.738281 0 17.351562 0 L 21.214844 0 L 21.214844 -0.191406 C 19.28125 -0.191406 18.359375 -1.117188 17.265625 -4.574219 C 16.210938 -7.878906 15.203125 -8.847656 12.175781 -9.019531 C 14.773438 -9.449219 17.113281 -10.886719 17.113281 -13.742188 C 17.113281 -17.199219 13.851562 -18.507812 10.371094 -18.507812 L 1.074219 -18.507812 L 1.074219 -18.316406 L 1.332031 -18.316406 C 1.976562 -18.292969 3.605469 -18.015625 3.605469 -16.039062 L 3.605469 -2.46875 C 3.605469 -0.902344 2.683594 -0.191406 1.074219 -0.191406 Z M 10.371094 -9.0625 L 8.050781 -9.0625 L 8.050781 -18.316406 L 10.371094 -18.316406 C 11.917969 -18.316406 12.734375 -16.339844 12.734375 -13.742188 C 12.734375 -11.121094 11.917969 -9.0625 10.371094 -9.0625 Z M 10.371094 -9.0625 "/></g></g></g><g fill="#94e8b4" fill-opacity="1"><g transform="translate(298.437701, 188.399959)"><g><path d="M 10.457031 0 C 11.574219 0 12.625 -0.191406 13.636719 -0.558594 C 15.546875 -1.117188 17.609375 -0.988281 17.671875 -0.191406 L 17.863281 -0.191406 L 17.863281 -5.96875 C 17.90625 -7.320312 18.832031 -8.136719 20.3125 -8.136719 L 20.3125 -8.332031 L 11.058594 -8.332031 L 11.058594 -8.136719 C 12.453125 -8.136719 13.464844 -7.363281 13.484375 -5.949219 L 13.484375 -0.902344 C 12.691406 -0.558594 11.316406 -0.257812 10.457031 -0.257812 C 9.125 -0.257812 5.453125 -1.136719 5.433594 -9.40625 C 5.453125 -17.671875 9.125 -18.550781 10.457031 -18.550781 C 10.863281 -18.550781 11.808594 -18.464844 12.925781 -18.121094 C 15.265625 -17.328125 16.535156 -15.824219 16.597656 -13.550781 L 16.792969 -13.550781 L 16.792969 -18.617188 L 16.597656 -18.617188 C 16.535156 -17.800781 15.652344 -17.652344 13.636719 -18.25 C 12.625 -18.617188 11.574219 -18.808594 10.457031 -18.808594 C 7.988281 -18.808594 5.667969 -17.84375 3.886719 -16.125 C 2.167969 -14.386719 1.203125 -12.28125 1.074219 -9.964844 L 1.074219 -8.890625 C 1.351562 -3.90625 5.496094 0 10.457031 0 Z M 10.457031 0 "/></g></g></g><g fill="#94e8b4" fill-opacity="1"><g transform="translate(319.820584, 188.399959)"><g><path d="M 1.074219 -0.191406 L 1.074219 0 L 16.621094 0 L 18.035156 -4.851562 L 17.84375 -4.851562 C 16.8125 -1.738281 14.277344 -0.191406 10.585938 -0.191406 C 9.019531 -0.191406 8.050781 -1.050781 8.050781 -2.46875 L 8.050781 -9.621094 L 11.273438 -9.621094 C 13.25 -9.554688 13.441406 -7.773438 13.441406 -7.277344 L 13.441406 -7.171875 L 13.636719 -7.171875 L 13.636719 -12.238281 L 13.441406 -12.238281 L 13.441406 -12.132812 C 13.441406 -11.636719 13.25 -9.855469 11.273438 -9.8125 L 8.050781 -9.8125 L 8.074219 -18.316406 L 9.621094 -18.316406 C 14.816406 -18.316406 15.933594 -15.136719 16.148438 -14.042969 L 16.210938 -13.65625 L 16.382812 -13.742188 L 15.652344 -18.507812 L 1.074219 -18.507812 L 1.074219 -18.316406 C 2.640625 -18.316406 3.605469 -17.457031 3.605469 -16.039062 L 3.605469 -2.46875 C 3.605469 -1.050781 2.640625 -0.191406 1.074219 -0.191406 Z M 1.074219 -0.191406 "/></g></g></g><g fill="#94e8b4" fill-opacity="1"><g transform="translate(338.927776, 188.399959)"><g><path d="M 4.359375 -0.515625 C 7.085938 0.515625 10.949219 0.257812 12.777344 -1.566406 C 13.636719 -2.425781 14.277344 -3.972656 14.277344 -5.21875 C 14.277344 -8.996094 11.25 -9.707031 7.730469 -11.875 C 5.667969 -13.140625 4.679688 -14.148438 4.679688 -15.609375 C 4.679688 -17.222656 5.476562 -18.464844 7.988281 -18.464844 C 8.976562 -18.464844 9.898438 -18.207031 10.648438 -17.777344 C 12.582031 -16.535156 12.691406 -12.96875 12.691406 -12.96875 L 12.882812 -12.96875 L 12.882812 -18.058594 L 12.691406 -18.058594 L 12.691406 -17.972656 C 12.605469 -17.15625 10.90625 -17.863281 10.179688 -18.230469 C 9.511719 -18.550781 8.761719 -18.660156 7.988281 -18.660156 C 5.410156 -18.660156 2.921875 -17.265625 1.933594 -15.03125 C 0.835938 -12.582031 1.867188 -11.058594 5.089844 -8.652344 C 7.429688 -6.914062 11.894531 -5.476562 11.808594 -3.070312 C 11.746094 -1.460938 10.585938 -0.0859375 7.472656 -0.0859375 C 4.316406 -0.0859375 1.289062 -2.878906 1.289062 -5.648438 L 1.289062 -6.140625 L 1.09375 -6.140625 L 1.09375 0 L 1.289062 0 L 1.289062 -0.0195312 C 1.289062 -0.964844 1.460938 -1.632812 4.359375 -0.515625 Z M 4.359375 -0.515625 "/></g></g></g><g fill="#94e8b4" fill-opacity="1"><g transform="translate(160.68512, 209.913517)"><g><path d="M 1.417969 0 L 4.140625 0 C 7.464844 0 9.328125 -1.808594 9.328125 -4.976562 C 9.328125 -8.28125 7.515625 -10.105469 4.15625 -10.105469 L 1.417969 -10.105469 Z M 2.867188 -1.332031 L 2.867188 -8.78125 L 4.125 -8.78125 C 6.714844 -8.78125 7.875 -7.566406 7.875 -5.054688 C 7.875 -2.394531 6.265625 -1.332031 3.96875 -1.332031 Z M 2.867188 -1.332031 "/></g></g></g><g fill="#94e8b4" fill-opacity="1"><g transform="translate(170.740723, 209.913517)"><g><path d="M 3.941406 0.121094 C 5.105469 0.121094 5.984375 -0.25 6.765625 -1.074219 L 5.808594 -1.882812 C 5.277344 -1.300781 4.675781 -1.117188 3.941406 -1.117188 C 2.667969 -1.117188 2.058594 -1.996094 1.996094 -3.117188 L 6.9375 -3.117188 C 6.960938 -3.234375 6.980469 -3.488281 6.980469 -3.726562 C 6.980469 -5.351562 6.230469 -7.265625 3.820312 -7.265625 C 1.585938 -7.265625 0.527344 -5.429688 0.527344 -3.539062 C 0.527344 -1.609375 1.628906 0.121094 3.941406 0.121094 Z M 1.996094 -4.167969 C 2.09375 -5.226562 2.640625 -6.113281 3.8125 -6.113281 C 5.019531 -6.113281 5.570312 -5.257812 5.636719 -4.167969 Z M 1.996094 -4.167969 "/></g></g></g><g fill="#94e8b4" fill-opacity="1"><g transform="translate(178.252052, 209.913517)"><g><path d="M 3.191406 0.144531 C 4.476562 0.144531 5.792969 -0.570312 5.792969 -2.136719 C 5.792969 -4.757812 2.046875 -3.992188 2.046875 -5.378906 C 2.046875 -5.84375 2.46875 -6.195312 3.140625 -6.195312 C 3.914062 -6.195312 4.378906 -5.765625 4.65625 -5.226562 L 5.707031 -5.808594 C 5.222656 -6.714844 4.347656 -7.296875 3.191406 -7.296875 C 1.894531 -7.296875 0.742188 -6.585938 0.742188 -5.199219 C 0.742188 -2.730469 4.441406 -3.613281 4.441406 -2.023438 C 4.441406 -1.4375 3.960938 -1 3.152344 -1 C 2.195312 -1 1.714844 -1.625 1.496094 -2.265625 L 0.363281 -1.738281 C 0.699219 -0.714844 1.765625 0.144531 3.191406 0.144531 Z M 3.191406 0.144531 "/></g></g></g><g fill="#94e8b4" fill-opacity="1"><g transform="translate(184.598441, 209.913517)"><g><path d="M 3.941406 0.121094 C 5.105469 0.121094 5.984375 -0.25 6.765625 -1.074219 L 5.808594 -1.882812 C 5.277344 -1.300781 4.675781 -1.117188 3.941406 -1.117188 C 2.667969 -1.117188 2.058594 -1.996094 1.996094 -3.117188 L 6.9375 -3.117188 C 6.960938 -3.234375 6.980469 -3.488281 6.980469 -3.726562 C 6.980469 -5.351562 6.230469 -7.265625 3.820312 -7.265625 C 1.585938 -7.265625 0.527344 -5.429688 0.527344 -3.539062 C 0.527344 -1.609375 1.628906 0.121094 3.941406 0.121094 Z M 1.996094 -4.167969 C 2.09375 -5.226562 2.640625 -6.113281 3.8125 -6.113281 C 5.019531 -6.113281 5.570312 -5.257812 5.636719 -4.167969 Z M 1.996094 -4.167969 "/></g></g></g><g fill="#94e8b4" fill-opacity="1"><g transform="translate(192.10977, 209.913517)"><g><path d="M 1.128906 0 L 2.503906 0 L 2.503906 -3.804688 C 2.503906 -5.328125 3.277344 -6.042969 4.328125 -6.042969 C 5.414062 -6.042969 5.828125 -5.121094 5.828125 -4.164062 L 5.828125 0 L 7.203125 0 L 7.203125 -4.320312 C 7.203125 -5.859375 6.492188 -7.28125 4.714844 -7.28125 C 3.832031 -7.28125 3.023438 -6.867188 2.503906 -6.09375 L 2.503906 -7.144531 L 1.128906 -7.144531 Z M 1.128906 0 "/></g></g></g><g fill="#94e8b4" fill-opacity="1"><g transform="translate(200.250021, 209.913517)"><g><path d="M 2.898438 0 L 4.070312 0 L 6.84375 -7.144531 L 5.355469 -7.144531 L 3.484375 -1.796875 L 1.625 -7.144531 L 0.105469 -7.144531 Z M 2.898438 0 "/></g></g></g><g fill="#94e8b4" fill-opacity="1"><g transform="translate(207.196744, 209.913517)"><g><path d="M 4.003906 0.144531 C 6.109375 0.144531 7.53125 -1.558594 7.53125 -3.589844 C 7.53125 -5.613281 6.109375 -7.296875 4.003906 -7.296875 C 1.894531 -7.296875 0.492188 -5.613281 0.492188 -3.589844 C 0.492188 -1.558594 1.894531 0.144531 4.003906 0.144531 Z M 4.011719 -1.03125 C 2.554688 -1.03125 1.925781 -2.273438 1.925781 -3.589844 C 1.925781 -4.898438 2.554688 -6.113281 4.011719 -6.113281 C 5.476562 -6.113281 6.101562 -4.898438 6.101562 -3.589844 C 6.101562 -2.289062 5.476562 -1.03125 4.011719 -1.03125 Z M 4.011719 -1.03125 "/></g></g></g><g fill="#94e8b4" fill-opacity="1"><g transform="translate(215.222646, 209.913517)"><g><path d="M 2.410156 0.144531 C 2.796875 0.144531 3.238281 0.0703125 3.53125 0 L 3.53125 -1.144531 C 3.363281 -1.109375 3.117188 -1.085938 2.941406 -1.085938 C 2.582031 -1.085938 2.480469 -1.410156 2.480469 -1.523438 L 2.480469 -10.105469 L 1.09375 -10.105469 L 1.09375 -1.429688 C 1.09375 -0.386719 1.453125 0.144531 2.410156 0.144531 Z M 2.410156 0.144531 "/></g></g></g><g fill="#94e8b4" fill-opacity="1"><g transform="translate(219.110524, 209.913517)"><g><path d="M 2.898438 0 L 4.070312 0 L 6.84375 -7.144531 L 5.355469 -7.144531 L 3.484375 -1.796875 L 1.625 -7.144531 L 0.105469 -7.144531 Z M 2.898438 0 "/></g></g></g><g fill="#94e8b4" fill-opacity="1"><g transform="translate(226.057247, 209.913517)"><g><path d="M 3.941406 0.121094 C 5.105469 0.121094 5.984375 -0.25 6.765625 -1.074219 L 5.808594 -1.882812 C 5.277344 -1.300781 4.675781 -1.117188 3.941406 -1.117188 C 2.667969 -1.117188 2.058594 -1.996094 1.996094 -3.117188 L 6.9375 -3.117188 C 6.960938 -3.234375 6.980469 -3.488281 6.980469 -3.726562 C 6.980469 -5.351562 6.230469 -7.265625 3.820312 -7.265625 C 1.585938 -7.265625 0.527344 -5.429688 0.527344 -3.539062 C 0.527344 -1.609375 1.628906 0.121094 3.941406 0.121094 Z M 1.996094 -4.167969 C 2.09375 -5.226562 2.640625 -6.113281 3.8125 -6.113281 C 5.019531 -6.113281 5.570312 -5.257812 5.636719 -4.167969 Z M 1.996094 -4.167969 "/></g></g></g><g fill="#94e8b4" fill-opacity="1"><g transform="translate(233.568577, 209.913517)"><g><path d="M 5.679688 -10.105469 L 5.679688 -6.292969 C 5.191406 -6.945312 4.433594 -7.296875 3.53125 -7.296875 C 1.636719 -7.296875 0.578125 -5.585938 0.578125 -3.574219 C 0.578125 -1.558594 1.636719 0.144531 3.546875 0.144531 C 4.484375 0.144531 5.226562 -0.222656 5.714844 -0.894531 L 5.757812 0 L 7.074219 0 L 7.074219 -10.105469 Z M 3.898438 -1.074219 C 2.566406 -1.074219 1.988281 -2.238281 1.988281 -3.574219 C 1.988281 -4.898438 2.566406 -6.070312 3.898438 -6.070312 C 5.234375 -6.070312 5.792969 -4.90625 5.792969 -3.574219 C 5.792969 -2.222656 5.234375 -1.074219 3.898438 -1.074219 Z M 3.898438 -1.074219 "/></g></g></g><g fill="#94e8b4" fill-opacity="1"><g transform="translate(241.780296, 209.913517)"><g><path d="M 4.003906 0.144531 C 6.109375 0.144531 7.53125 -1.558594 7.53125 -3.589844 C 7.53125 -5.613281 6.109375 -7.296875 4.003906 -7.296875 C 1.894531 -7.296875 0.492188 -5.613281 0.492188 -3.589844 C 0.492188 -1.558594 1.894531 0.144531 4.003906 0.144531 Z M 4.011719 -1.03125 C 2.554688 -1.03125 1.925781 -2.273438 1.925781 -3.589844 C 1.925781 -4.898438 2.554688 -6.113281 4.011719 -6.113281 C 5.476562 -6.113281 6.101562 -4.898438 6.101562 -3.589844 C 6.101562 -2.289062 5.476562 -1.03125 4.011719 -1.03125 Z M 4.011719 -1.03125 "/></g></g></g><g fill="#94e8b4" fill-opacity="1"><g transform="translate(249.806197, 209.913517)"><g><path d="M 1.128906 0 L 2.476562 0 L 2.476562 -3.3125 C 2.476562 -5.078125 3.261719 -5.957031 4.292969 -5.957031 C 4.605469 -5.957031 4.886719 -5.871094 5.121094 -5.691406 L 5.730469 -6.859375 C 5.429688 -7.128906 4.992188 -7.296875 4.503906 -7.296875 C 3.65625 -7.296875 2.832031 -6.78125 2.488281 -5.90625 L 2.488281 -7.144531 L 1.128906 -7.144531 Z M 1.128906 0 "/></g></g></g><g fill="#94e8b4" fill-opacity="1"><g transform="translate(255.559405, 209.913517)"><g/></g></g><g fill="#94e8b4" fill-opacity="1"><g transform="translate(259.261465, 209.913517)"><g><path d="M 1.496094 0 L 2.902344 0 L 2.902344 -5.992188 L 4.777344 -5.992188 L 4.777344 -7.144531 L 2.902344 -7.144531 L 2.902344 -8.117188 C 2.902344 -8.769531 3.261719 -9.046875 3.71875 -9.046875 C 3.949219 -9.046875 4.191406 -8.96875 4.425781 -8.847656 L 4.828125 -9.96875 C 4.46875 -10.140625 4.046875 -10.257812 3.597656 -10.257812 C 2.480469 -10.257812 1.5 -9.570312 1.5 -8.230469 L 1.5 -7.144531 L 0.191406 -7.144531 L 0.191406 -5.992188 L 1.496094 -5.992188 Z M 1.496094 0 "/></g></g></g><g fill="#94e8b4" fill-opacity="1"><g transform="translate(264.142759, 209.913517)"><g><path d="M 1.128906 0 L 2.476562 0 L 2.476562 -3.3125 C 2.476562 -5.078125 3.261719 -5.957031 4.292969 -5.957031 C 4.605469 -5.957031 4.886719 -5.871094 5.121094 -5.691406 L 5.730469 -6.859375 C 5.429688 -7.128906 4.992188 -7.296875 4.503906 -7.296875 C 3.65625 -7.296875 2.832031 -6.78125 2.488281 -5.90625 L 2.488281 -7.144531 L 1.128906 -7.144531 Z M 1.128906 0 "/></g></g></g><g fill="#94e8b4" fill-opacity="1"><g transform="translate(269.895967, 209.913517)"><g><path d="M 4.003906 0.144531 C 6.109375 0.144531 7.53125 -1.558594 7.53125 -3.589844 C 7.53125 -5.613281 6.109375 -7.296875 4.003906 -7.296875 C 1.894531 -7.296875 0.492188 -5.613281 0.492188 -3.589844 C 0.492188 -1.558594 1.894531 0.144531 4.003906 0.144531 Z M 4.011719 -1.03125 C 2.554688 -1.03125 1.925781 -2.273438 1.925781 -3.589844 C 1.925781 -4.898438 2.554688 -6.113281 4.011719 -6.113281 C 5.476562 -6.113281 6.101562 -4.898438 6.101562 -3.589844 C 6.101562 -2.289062 5.476562 -1.03125 4.011719 -1.03125 Z M 4.011719 -1.03125 "/></g></g></g><g fill="#94e8b4" fill-opacity="1"><g transform="translate(277.921868, 209.913517)"><g><path d="M 1.128906 0 L 2.503906 0 L 2.503906 -3.804688 C 2.503906 -5.328125 3.277344 -6.042969 4.328125 -6.042969 C 5.414062 -6.042969 5.828125 -5.121094 5.828125 -4.164062 L 5.828125 0 L 7.203125 0 L 7.203125 -4.320312 C 7.203125 -5.859375 6.492188 -7.28125 4.714844 -7.28125 C 3.832031 -7.28125 3.023438 -6.867188 2.503906 -6.09375 L 2.503906 -7.144531 L 1.128906 -7.144531 Z M 1.128906 0 "/></g></g></g><g fill="#94e8b4" fill-opacity="1"><g transform="translate(286.062119, 209.913517)"><g><path d="M 3.367188 0.144531 C 3.832031 0.144531 4.277344 0.0507812 4.484375 -0.0351562 L 4.484375 -1.265625 C 4.253906 -1.152344 3.933594 -1.042969 3.632812 -1.042969 C 3.148438 -1.042969 2.773438 -1.335938 2.773438 -2.074219 L 2.773438 -5.992188 L 4.585938 -5.992188 L 4.585938 -7.144531 L 2.773438 -7.144531 L 2.773438 -9.949219 L 1.417969 -8.832031 L 1.417969 -7.144531 L 0.25 -7.144531 L 0.25 -5.992188 L 1.402344 -5.992188 L 1.402344 -1.929688 C 1.402344 -0.671875 2.039062 0.144531 3.367188 0.144531 Z M 3.367188 0.144531 "/></g></g></g><g fill="#94e8b4" fill-opacity="1"><g transform="translate(291.143524, 209.913517)"><g><path d="M 3.941406 0.121094 C 5.105469 0.121094 5.984375 -0.25 6.765625 -1.074219 L 5.808594 -1.882812 C 5.277344 -1.300781 4.675781 -1.117188 3.941406 -1.117188 C 2.667969 -1.117188 2.058594 -1.996094 1.996094 -3.117188 L 6.9375 -3.117188 C 6.960938 -3.234375 6.980469 -3.488281 6.980469 -3.726562 C 6.980469 -5.351562 6.230469 -7.265625 3.820312 -7.265625 C 1.585938 -7.265625 0.527344 -5.429688 0.527344 -3.539062 C 0.527344 -1.609375 1.628906 0.121094 3.941406 0.121094 Z M 1.996094 -4.167969 C 2.09375 -5.226562 2.640625 -6.113281 3.8125 -6.113281 C 5.019531 -6.113281 5.570312 -5.257812 5.636719 -4.167969 Z M 1.996094 -4.167969 "/></g></g></g><g fill="#94e8b4" fill-opacity="1"><g transform="translate(298.654853, 209.913517)"><g><path d="M 1.128906 0 L 2.503906 0 L 2.503906 -3.804688 C 2.503906 -5.328125 3.277344 -6.042969 4.328125 -6.042969 C 5.414062 -6.042969 5.828125 -5.121094 5.828125 -4.164062 L 5.828125 0 L 7.203125 0 L 7.203125 -4.320312 C 7.203125 -5.859375 6.492188 -7.28125 4.714844 -7.28125 C 3.832031 -7.28125 3.023438 -6.867188 2.503906 -6.09375 L 2.503906 -7.144531 L 1.128906 -7.144531 Z M 1.128906 0 "/></g></g></g><g fill="#94e8b4" fill-opacity="1"><g transform="translate(306.795104, 209.913517)"><g><path d="M 5.679688 -10.105469 L 5.679688 -6.292969 C 5.191406 -6.945312 4.433594 -7.296875 3.53125 -7.296875 C 1.636719 -7.296875 0.578125 -5.585938 0.578125 -3.574219 C 0.578125 -1.558594 1.636719 0.144531 3.546875 0.144531 C 4.484375 0.144531 5.226562 -0.222656 5.714844 -0.894531 L 5.757812 0 L 7.074219 0 L 7.074219 -10.105469 Z M 3.898438 -1.074219 C 2.566406 -1.074219 1.988281 -2.238281 1.988281 -3.574219 C 1.988281 -4.898438 2.566406 -6.070312 3.898438 -6.070312 C 5.234375 -6.070312 5.792969 -4.90625 5.792969 -3.574219 C 5.792969 -2.222656 5.234375 -1.074219 3.898438 -1.074219 Z M 3.898438 -1.074219 "/></g></g></g><g clip-path="url(#762bf3c74b)"><path fill="#94e8b4" d="M 106.976562 178.84375 L 106.976562 176.996094 C 106.960938 176.910156 106.949219 176.824219 106.945312 176.738281 C 106.925781 176.664062 106.902344 176.558594 106.894531 176.542969 L 106.933594 176.503906 L 106.933594 176.390625 C 106.933594 176.390625 106.890625 176.210938 106.882812 176.195312 L 106.902344 176.175781 L 106.742188 176.269531 L 106.527344 175.996094 C 106.464844 175.957031 106.230469 175.753906 106.175781 175.699219 L 75.183594 155.03125 C 74.941406 154.871094 74.671875 154.789062 74.382812 154.789062 C 74.089844 154.789062 73.820312 154.871094 73.578125 155.03125 L 42.4375 175.789062 L 42.195312 175.992188 C 42.167969 176.050781 42.019531 176.234375 41.984375 176.289062 C 41.945312 176.40625 41.890625 176.511719 41.8125 176.605469 L 41.8125 176.671875 L 41.796875 178.835938 L 41.796875 197.757812 L 41.84375 198.105469 C 41.910156 198.242188 41.964844 198.378906 42.007812 198.523438 C 42.035156 198.546875 42.226562 198.78125 42.25 198.804688 C 42.382812 198.894531 42.503906 198.992188 42.621094 199.101562 L 73.585938 219.726562 C 73.832031 219.882812 74.101562 219.960938 74.390625 219.960938 C 74.683594 219.960938 74.949219 219.882812 75.195312 219.726562 L 106.335938 198.964844 L 106.574219 198.761719 C 106.632812 198.675781 106.691406 198.597656 106.757812 198.519531 C 106.777344 198.472656 106.890625 198.269531 106.914062 198.222656 C 106.941406 198.175781 106.941406 198.082031 106.960938 198.003906 C 106.964844 197.957031 106.972656 197.910156 106.984375 197.863281 Z M 75.832031 174.988281 L 75.832031 161.339844 C 75.832031 161.0625 75.902344 160.808594 76.042969 160.574219 C 76.183594 160.339844 76.375 160.15625 76.617188 160.027344 C 76.859375 159.898438 77.117188 159.84375 77.390625 159.855469 C 77.664062 159.867188 77.914062 159.953125 78.140625 160.105469 L 101.074219 175.402344 C 101.515625 175.695312 101.738281 176.105469 101.738281 176.636719 C 101.726562 176.699219 101.710938 176.761719 101.691406 176.820312 C 101.710938 176.878906 101.726562 176.941406 101.738281 177 C 101.738281 177.53125 101.515625 177.941406 101.074219 178.234375 L 90.828125 185.085938 C 90.578125 185.253906 90.304688 185.335938 90.003906 185.335938 C 89.703125 185.335938 89.429688 185.253906 89.179688 185.085938 L 76.480469 176.601562 C 76.042969 176.308594 75.820312 175.894531 75.820312 175.367188 Z M 47.035156 176.628906 C 47.035156 176.101562 47.253906 175.695312 47.6875 175.402344 L 70.632812 160.09375 C 70.859375 159.941406 71.113281 159.855469 71.386719 159.84375 C 71.660156 159.832031 71.914062 159.886719 72.15625 160.015625 C 72.398438 160.144531 72.589844 160.328125 72.730469 160.5625 C 72.871094 160.796875 72.941406 161.050781 72.941406 161.324219 L 72.941406 175.367188 C 72.941406 175.894531 72.71875 176.308594 72.28125 176.601562 L 59.582031 185.085938 C 59.332031 185.253906 59.058594 185.335938 58.757812 185.335938 C 58.460938 185.335938 58.1875 185.253906 57.9375 185.085938 L 47.6875 178.234375 C 47.246094 177.941406 47.023438 177.53125 47.023438 176.996094 C 47.035156 176.9375 47.050781 176.875 47.070312 176.816406 C 47.050781 176.757812 47.035156 176.699219 47.023438 176.636719 Z M 46.171875 193.753906 C 45.976562 193.753906 45.789062 193.71875 45.605469 193.640625 C 45.425781 193.566406 45.265625 193.460938 45.125 193.320312 C 44.984375 193.183594 44.878906 193.023438 44.804688 192.839844 C 44.726562 192.660156 44.691406 192.46875 44.691406 192.273438 L 44.691406 182.484375 C 44.691406 182.210938 44.761719 181.957031 44.902344 181.71875 C 45.042969 181.484375 45.234375 181.304688 45.476562 181.171875 C 45.71875 181.042969 45.976562 180.988281 46.25 181 C 46.523438 181.015625 46.773438 181.097656 47 181.25 L 54.328125 186.152344 C 54.757812 186.445312 54.976562 186.855469 54.972656 187.378906 C 54.972656 187.90625 54.753906 188.320312 54.316406 188.613281 L 46.988281 193.511719 C 46.738281 193.679688 46.460938 193.761719 46.160156 193.765625 Z M 72.953125 213.035156 C 72.953125 213.230469 72.914062 213.417969 72.839844 213.601562 C 72.765625 213.78125 72.65625 213.941406 72.519531 214.082031 C 72.378906 214.222656 72.21875 214.328125 72.039062 214.402344 C 71.855469 214.480469 71.667969 214.515625 71.46875 214.515625 C 71.167969 214.519531 70.894531 214.433594 70.644531 214.269531 L 47.6875 198.988281 C 47.585938 198.921875 47.496094 198.84375 47.414062 198.753906 C 47.332031 198.664062 47.261719 198.5625 47.203125 198.457031 C 47.148438 198.347656 47.101562 198.234375 47.074219 198.117188 C 47.042969 198 47.027344 197.878906 47.027344 197.757812 C 47.027344 197.632812 47.042969 197.515625 47.074219 197.394531 C 47.101562 197.277344 47.148438 197.164062 47.203125 197.058594 C 47.261719 196.949219 47.332031 196.851562 47.414062 196.757812 C 47.496094 196.667969 47.585938 196.589844 47.6875 196.523438 L 57.941406 189.671875 C 58.191406 189.503906 58.46875 189.421875 58.769531 189.421875 C 59.070312 189.421875 59.34375 189.503906 59.59375 189.671875 L 72.292969 198.167969 C 72.730469 198.460938 72.949219 198.875 72.949219 199.402344 Z M 74.382812 195.792969 C 74.082031 195.792969 73.808594 195.707031 73.558594 195.542969 L 63.199219 188.617188 C 62.761719 188.320312 62.542969 187.90625 62.546875 187.378906 C 62.554688 187.316406 62.570312 187.253906 62.589844 187.195312 C 62.570312 187.132812 62.554688 187.070312 62.546875 187.007812 C 62.542969 186.480469 62.761719 186.070312 63.199219 185.773438 L 73.558594 178.847656 C 73.808594 178.679688 74.082031 178.597656 74.382812 178.597656 C 74.683594 178.597656 74.957031 178.679688 75.207031 178.847656 L 85.566406 185.773438 C 86.007812 186.066406 86.226562 186.480469 86.226562 187.007812 C 86.214844 187.070312 86.199219 187.132812 86.179688 187.195312 C 86.199219 187.253906 86.214844 187.316406 86.226562 187.378906 C 86.226562 187.90625 86.007812 188.320312 85.566406 188.613281 L 75.207031 195.539062 C 74.957031 195.707031 74.683594 195.789062 74.382812 195.792969 Z M 101.074219 198.988281 L 78.125 214.28125 C 77.875 214.449219 77.601562 214.535156 77.300781 214.53125 C 77.105469 214.53125 76.914062 214.492188 76.734375 214.417969 C 76.550781 214.34375 76.390625 214.234375 76.253906 214.097656 C 76.113281 213.957031 76.007812 213.796875 75.929688 213.617188 C 75.855469 213.433594 75.816406 213.246094 75.816406 213.046875 L 75.816406 199.40625 C 75.816406 198.875 76.035156 198.464844 76.476562 198.171875 L 89.179688 189.675781 C 89.429688 189.507812 89.703125 189.421875 90.003906 189.421875 C 90.304688 189.421875 90.582031 189.507812 90.832031 189.675781 L 101.074219 196.523438 C 101.175781 196.589844 101.269531 196.667969 101.351562 196.757812 C 101.433594 196.851562 101.503906 196.949219 101.558594 197.058594 C 101.617188 197.164062 101.660156 197.277344 101.691406 197.394531 C 101.722656 197.515625 101.734375 197.632812 101.734375 197.757812 C 101.734375 197.878906 101.722656 198 101.691406 198.117188 C 101.660156 198.234375 101.617188 198.347656 101.558594 198.457031 C 101.503906 198.5625 101.433594 198.664062 101.351562 198.753906 C 101.269531 198.84375 101.175781 198.921875 101.074219 198.988281 Z M 104.082031 192.28125 C 104.082031 192.476562 104.042969 192.667969 103.96875 192.847656 C 103.890625 193.03125 103.785156 193.191406 103.644531 193.328125 C 103.507812 193.46875 103.347656 193.574219 103.164062 193.652344 C 102.984375 193.726562 102.792969 193.765625 102.597656 193.765625 C 102.296875 193.761719 102.019531 193.679688 101.769531 193.507812 L 94.449219 188.609375 C 94.347656 188.542969 94.257812 188.460938 94.179688 188.371094 C 94.097656 188.28125 94.027344 188.183594 93.972656 188.078125 C 93.914062 187.96875 93.871094 187.855469 93.84375 187.738281 C 93.8125 187.621094 93.796875 187.503906 93.796875 187.382812 C 93.796875 187.261719 93.8125 187.140625 93.84375 187.023438 C 93.871094 186.90625 93.914062 186.792969 93.972656 186.6875 C 94.027344 186.578125 94.097656 186.480469 94.179688 186.390625 C 94.257812 186.300781 94.347656 186.222656 94.449219 186.152344 L 101.769531 181.25 C 101.996094 181.09375 102.246094 181.011719 102.519531 181 C 102.792969 180.984375 103.050781 181.042969 103.292969 181.171875 C 103.535156 181.300781 103.726562 181.480469 103.867188 181.71875 C 104.011719 181.953125 104.082031 182.207031 104.082031 182.480469 Z M 104.082031 192.28125 " fill-opacity="1" fill-rule="nonzero"/></g><path stroke-linecap="round" transform="matrix(0.00970042, 0.747119, -0.749937, 0.009737, 128.998957, 154.744955)" fill="none" stroke-linejoin="miter" d="M 0.99756 1.001179 L 86.330571 1.0007 " stroke="#94e8b4" stroke-width="2" stroke-opacity="1" stroke-miterlimit="4"/></svg>