<svg xmlns="http://www.w3.org/2000/svg" xmlns:xlink="http://www.w3.org/1999/xlink" width="500" zoomAndPan="magnify" viewBox="0 0 375 374.999991" height="500" preserveAspectRatio="xMidYMid meet" version="1.0"><defs><g/><clipPath id="aeba08d90d"><path d="M 26.269531 123.578125 L 131.269531 123.578125 L 131.269531 208 L 26.269531 208 Z M 26.269531 123.578125 " clip-rule="nonzero"/></clipPath><clipPath id="3344c07ec0"><path d="M 118 222 L 123 222 L 123 226.328125 L 118 226.328125 Z M 118 222 " clip-rule="nonzero"/></clipPath></defs><g clip-path="url(#aeba08d90d)"><path fill="#5e8c61" d="M 130.136719 158.605469 C 129.414062 156.90625 128.382812 155.382812 127.070312 154.074219 C 125.753906 152.765625 124.226562 151.738281 122.519531 151.019531 C 120.753906 150.277344 118.882812 149.898438 116.949219 149.898438 C 116.058594 149.898438 115.167969 149.980469 114.296875 150.144531 C 114.230469 148.890625 113.949219 147.671875 113.457031 146.515625 C 112.914062 145.226562 112.128906 144.074219 111.132812 143.082031 C 110.140625 142.089844 108.980469 141.308594 107.6875 140.765625 C 106.347656 140.203125 104.929688 139.914062 103.464844 139.914062 C 103.117188 139.914062 102.769531 139.933594 102.425781 139.964844 C 101.847656 136.664062 100.167969 133.644531 97.640625 131.390625 C 94.878906 128.929688 91.316406 127.570312 87.609375 127.570312 C 85.765625 127.570312 83.960938 127.902344 82.25 128.550781 C 80.871094 129.074219 79.589844 129.792969 78.421875 130.691406 C 77.6875 129.777344 76.867188 128.929688 75.972656 128.167969 C 74.859375 127.210938 73.628906 126.382812 72.328125 125.707031 C 71 125.019531 69.589844 124.488281 68.140625 124.132812 C 66.648438 123.765625 65.105469 123.578125 63.554688 123.578125 C 60.980469 123.578125 58.488281 124.082031 56.136719 125.070312 C 53.871094 126.027344 51.832031 127.394531 50.085938 129.136719 C 48.335938 130.878906 46.960938 132.90625 46.003906 135.167969 C 45.113281 137.261719 44.617188 139.46875 44.523438 141.746094 C 42.234375 141.84375 40.015625 142.335938 37.914062 143.222656 C 35.644531 144.179688 33.609375 145.546875 31.859375 147.289062 C 30.109375 149.03125 28.738281 151.058594 27.777344 153.320312 C 26.785156 155.660156 26.28125 158.144531 26.28125 160.703125 C 26.28125 164.523438 27.414062 168.203125 29.558594 171.347656 C 30.59375 172.867188 31.839844 174.222656 33.261719 175.386719 C 34.488281 176.386719 35.824219 177.226562 37.25 177.890625 C 36.378906 180.167969 35.941406 182.5625 35.941406 185.027344 C 35.941406 187.738281 36.472656 190.363281 37.523438 192.839844 C 38.539062 195.226562 39.988281 197.371094 41.839844 199.214844 C 43.6875 201.058594 45.84375 202.503906 48.242188 203.515625 C 50.726562 204.5625 53.363281 205.089844 56.082031 205.089844 C 58.902344 205.089844 61.628906 204.523438 64.191406 203.398438 C 65.417969 202.859375 66.601562 202.191406 67.699219 201.417969 C 68.503906 200.851562 69.265625 200.226562 69.976562 199.550781 C 71.410156 201.675781 73.3125 203.464844 75.53125 204.761719 C 76.808594 205.507812 78.179688 206.085938 79.609375 206.480469 C 81.078125 206.882812 82.605469 207.089844 84.148438 207.089844 C 86.152344 207.089844 88.113281 206.746094 89.980469 206.066406 C 91.78125 205.414062 93.453125 204.464844 94.945312 203.246094 C 96.421875 202.039062 97.675781 200.609375 98.675781 198.988281 C 99.503906 197.648438 100.132812 196.214844 100.558594 194.710938 C 102.527344 195.683594 104.707031 196.195312 106.925781 196.195312 C 108.859375 196.195312 110.734375 195.820312 112.496094 195.074219 C 114.203125 194.359375 115.730469 193.332031 117.046875 192.023438 C 118.359375 190.710938 119.390625 189.1875 120.113281 187.492188 C 120.859375 185.734375 121.238281 183.867188 121.238281 181.941406 C 121.238281 180.570312 121.042969 179.222656 120.660156 177.921875 C 121.945312 177.582031 123.175781 177.0625 124.324219 176.371094 C 125.707031 175.542969 126.933594 174.492188 127.96875 173.25 C 129.011719 171.996094 129.824219 170.59375 130.386719 169.070312 C 130.964844 167.5 131.261719 165.84375 131.261719 164.152344 C 131.261719 162.230469 130.882812 160.363281 130.136719 158.605469 Z M 119.433594 176.523438 C 119.199219 176.570312 118.996094 176.714844 118.878906 176.925781 C 118.757812 177.132812 118.738281 177.382812 118.820312 177.609375 C 119.332031 178.996094 119.589844 180.453125 119.589844 181.941406 C 119.589844 188.898438 113.910156 194.554688 106.925781 194.554688 C 104.636719 194.554688 102.390625 193.9375 100.4375 192.773438 C 100.207031 192.636719 99.925781 192.621094 99.683594 192.726562 C 99.441406 192.832031 99.261719 193.046875 99.207031 193.308594 C 97.710938 200.339844 91.375 205.445312 84.148438 205.445312 C 78.691406 205.445312 73.589844 202.527344 70.839844 197.824219 C 70.707031 197.601562 70.480469 197.453125 70.21875 197.421875 C 70.1875 197.417969 70.15625 197.417969 70.125 197.417969 C 69.902344 197.417969 69.683594 197.511719 69.527344 197.675781 C 65.996094 201.398438 61.222656 203.449219 56.082031 203.449219 C 45.882812 203.449219 37.589844 195.1875 37.589844 185.027344 C 37.589844 182.515625 38.085938 180.078125 39.074219 177.785156 C 39.160156 177.585938 39.160156 177.355469 39.078125 177.15625 C 38.996094 176.953125 38.835938 176.789062 38.632812 176.707031 C 32.128906 174.003906 27.929688 167.722656 27.929688 160.703125 C 27.929688 151.148438 35.734375 143.371094 45.328125 143.371094 C 45.785156 143.371094 46.152344 143.003906 46.152344 142.550781 C 46.152344 132.996094 53.957031 125.21875 63.554688 125.21875 C 69.09375 125.21875 74.351562 127.886719 77.621094 132.347656 C 77.753906 132.535156 77.964844 132.65625 78.191406 132.679688 C 78.421875 132.707031 78.652344 132.632812 78.828125 132.484375 C 81.261719 130.375 84.378906 129.214844 87.609375 129.214844 C 94.402344 129.214844 100.117188 134.273438 100.90625 140.980469 C 100.933594 141.207031 101.050781 141.410156 101.234375 141.542969 C 101.414062 141.679688 101.644531 141.734375 101.867188 141.695312 C 102.390625 141.605469 102.929688 141.558594 103.464844 141.558594 C 108.535156 141.558594 112.664062 145.667969 112.664062 150.71875 C 112.664062 150.855469 112.660156 150.992188 112.652344 151.132812 C 112.640625 151.394531 112.757812 151.644531 112.960938 151.808594 C 113.164062 151.972656 113.433594 152.03125 113.6875 151.964844 C 114.746094 151.683594 115.84375 151.542969 116.949219 151.542969 C 123.933594 151.542969 129.613281 157.199219 129.613281 164.152344 C 129.613281 170.152344 125.332031 175.355469 119.433594 176.523438 Z M 119.433594 176.523438 " fill-opacity="1" fill-rule="nonzero"/></g><path fill="#5e8c61" d="M 107.945312 205.632812 C 107.945312 204.371094 107.453125 203.183594 106.554688 202.292969 C 105.660156 201.398438 104.46875 200.90625 103.203125 200.90625 C 101.9375 200.90625 100.746094 201.398438 99.847656 202.292969 C 98.953125 203.183594 98.460938 204.371094 98.460938 205.632812 C 98.460938 206.894531 98.953125 208.078125 99.847656 208.972656 C 100.746094 209.863281 101.9375 210.355469 103.203125 210.355469 C 104.46875 210.355469 105.660156 209.863281 106.554688 208.972656 C 107.453125 208.078125 107.945312 206.894531 107.945312 205.632812 Z M 103.203125 208.714844 C 101.496094 208.714844 100.109375 207.332031 100.109375 205.632812 C 100.109375 203.933594 101.496094 202.550781 103.203125 202.550781 C 104.910156 202.550781 106.296875 203.933594 106.296875 205.632812 C 106.296875 207.332031 104.910156 208.714844 103.203125 208.714844 Z M 103.203125 208.714844 " fill-opacity="1" fill-rule="nonzero"/><path fill="#5e8c61" d="M 109.488281 210.890625 C 107.730469 210.890625 106.296875 212.320312 106.296875 214.074219 C 106.296875 215.828125 107.730469 217.253906 109.488281 217.253906 C 111.25 217.253906 112.683594 215.828125 112.683594 214.074219 C 112.683594 212.320312 111.25 210.890625 109.488281 210.890625 Z M 109.488281 215.613281 C 108.636719 215.613281 107.945312 214.921875 107.945312 214.074219 C 107.945312 213.222656 108.636719 212.535156 109.488281 212.535156 C 110.339844 212.535156 111.035156 213.222656 111.035156 214.074219 C 111.035156 214.921875 110.339844 215.613281 109.488281 215.613281 Z M 109.488281 215.613281 " fill-opacity="1" fill-rule="nonzero"/><path fill="#5e8c61" d="M 114.59375 217.425781 C 113.234375 217.425781 112.128906 218.527344 112.128906 219.882812 C 112.128906 221.234375 113.234375 222.335938 114.59375 222.335938 C 115.953125 222.335938 117.058594 221.234375 117.058594 219.882812 C 117.058594 218.527344 115.953125 217.425781 114.59375 217.425781 Z M 114.59375 220.695312 C 114.140625 220.695312 113.777344 220.328125 113.777344 219.882812 C 113.777344 219.433594 114.140625 219.070312 114.59375 219.070312 C 115.042969 219.070312 115.410156 219.433594 115.410156 219.882812 C 115.410156 220.328125 115.042969 220.695312 114.59375 220.695312 Z M 114.59375 220.695312 " fill-opacity="1" fill-rule="nonzero"/><g clip-path="url(#3344c07ec0)"><path fill="#5e8c61" d="M 120.425781 222.144531 C 119.265625 222.144531 118.324219 223.085938 118.324219 224.238281 C 118.324219 225.390625 119.265625 226.328125 120.425781 226.328125 C 121.582031 226.328125 122.523438 225.390625 122.523438 224.238281 C 122.523438 223.085938 121.582031 222.144531 120.425781 222.144531 Z M 120.425781 224.6875 C 120.175781 224.6875 119.972656 224.484375 119.972656 224.238281 C 119.972656 223.988281 120.175781 223.789062 120.425781 223.789062 C 120.671875 223.789062 120.875 223.988281 120.875 224.238281 C 120.875 224.484375 120.671875 224.6875 120.425781 224.6875 Z M 120.425781 224.6875 " fill-opacity="1" fill-rule="nonzero"/></g><g fill="#5e8c61" fill-opacity="1"><g transform="translate(137.628893, 213.801665)"><g><path d="M 15.6875 0 L 8.8125 -22.40625 L 8.640625 -22.40625 C 8.878906 -17.84375 9 -14.800781 9 -13.28125 L 9 0 L 3.59375 0 L 3.59375 -28.5625 L 11.84375 -28.5625 L 18.59375 -6.71875 L 18.71875 -6.71875 L 25.875 -28.5625 L 34.125 -28.5625 L 34.125 0 L 28.484375 0 L 28.484375 -13.515625 C 28.484375 -14.148438 28.488281 -14.882812 28.5 -15.71875 C 28.519531 -16.550781 28.609375 -18.765625 28.765625 -22.359375 L 28.59375 -22.359375 L 21.234375 0 Z M 15.6875 0 "/></g></g></g><g fill="#5e8c61" fill-opacity="1"><g transform="translate(175.340057, 213.801665)"><g><path d="M 12.171875 -18.015625 C 10.910156 -18.015625 9.921875 -17.613281 9.203125 -16.8125 C 8.484375 -16.007812 8.070312 -14.875 7.96875 -13.40625 L 16.328125 -13.40625 C 16.304688 -14.875 15.921875 -16.007812 15.171875 -16.8125 C 14.429688 -17.613281 13.429688 -18.015625 12.171875 -18.015625 Z M 13.015625 0.390625 C 9.492188 0.390625 6.742188 -0.578125 4.765625 -2.515625 C 2.785156 -4.460938 1.796875 -7.210938 1.796875 -10.765625 C 1.796875 -14.421875 2.707031 -17.25 4.53125 -19.25 C 6.363281 -21.25 8.894531 -22.25 12.125 -22.25 C 15.21875 -22.25 17.625 -21.367188 19.34375 -19.609375 C 21.0625 -17.847656 21.921875 -15.421875 21.921875 -12.328125 L 21.921875 -9.4375 L 7.828125 -9.4375 C 7.898438 -7.738281 8.40625 -6.414062 9.34375 -5.46875 C 10.28125 -4.519531 11.59375 -4.046875 13.28125 -4.046875 C 14.59375 -4.046875 15.832031 -4.179688 17 -4.453125 C 18.175781 -4.722656 19.40625 -5.160156 20.6875 -5.765625 L 20.6875 -1.15625 C 19.644531 -0.632812 18.53125 -0.25 17.34375 0 C 16.15625 0.257812 14.710938 0.390625 13.015625 0.390625 Z M 13.015625 0.390625 "/></g></g></g><g fill="#5e8c61" fill-opacity="1"><g transform="translate(198.97056, 213.801665)"><g><path d="M 22.671875 0 L 16.71875 0 L 16.71875 -12.75 C 16.71875 -14.332031 16.453125 -15.515625 15.921875 -16.296875 C 15.398438 -17.085938 14.570312 -17.484375 13.4375 -17.484375 C 11.914062 -17.484375 10.804688 -16.921875 10.109375 -15.796875 C 9.421875 -14.679688 9.078125 -12.84375 9.078125 -10.28125 L 9.078125 0 L 3.125 0 L 3.125 -21.84375 L 7.671875 -21.84375 L 8.484375 -19.046875 L 8.8125 -19.046875 C 9.394531 -20.046875 10.238281 -20.828125 11.34375 -21.390625 C 12.457031 -21.960938 13.726562 -22.25 15.15625 -22.25 C 18.425781 -22.25 20.640625 -21.179688 21.796875 -19.046875 L 22.328125 -19.046875 C 22.910156 -20.054688 23.769531 -20.84375 24.90625 -21.40625 C 26.050781 -21.96875 27.335938 -22.25 28.765625 -22.25 C 31.242188 -22.25 33.117188 -21.613281 34.390625 -20.34375 C 35.660156 -19.070312 36.296875 -17.035156 36.296875 -14.234375 L 36.296875 0 L 30.3125 0 L 30.3125 -12.75 C 30.3125 -14.332031 30.046875 -15.515625 29.515625 -16.296875 C 28.992188 -17.085938 28.164062 -17.484375 27.03125 -17.484375 C 25.570312 -17.484375 24.476562 -16.960938 23.75 -15.921875 C 23.03125 -14.878906 22.671875 -13.222656 22.671875 -10.953125 Z M 22.671875 0 "/></g></g></g><g fill="#5e8c61" fill-opacity="1"><g transform="translate(238.244071, 213.801665)"><g><path d="M 7.875 -10.953125 C 7.875 -8.796875 8.226562 -7.160156 8.9375 -6.046875 C 9.644531 -4.941406 10.800781 -4.390625 12.40625 -4.390625 C 13.988281 -4.390625 15.128906 -4.941406 15.828125 -6.046875 C 16.523438 -7.148438 16.875 -8.785156 16.875 -10.953125 C 16.875 -13.117188 16.519531 -14.738281 15.8125 -15.8125 C 15.113281 -16.894531 13.960938 -17.4375 12.359375 -17.4375 C 10.773438 -17.4375 9.628906 -16.898438 8.921875 -15.828125 C 8.222656 -14.753906 7.875 -13.128906 7.875 -10.953125 Z M 22.96875 -10.953125 C 22.96875 -7.398438 22.03125 -4.617188 20.15625 -2.609375 C 18.28125 -0.609375 15.671875 0.390625 12.328125 0.390625 C 10.234375 0.390625 8.382812 -0.0664062 6.78125 -0.984375 C 5.175781 -1.898438 3.941406 -3.21875 3.078125 -4.9375 C 2.222656 -6.65625 1.796875 -8.660156 1.796875 -10.953125 C 1.796875 -14.523438 2.726562 -17.300781 4.59375 -19.28125 C 6.457031 -21.257812 9.070312 -22.25 12.4375 -22.25 C 14.539062 -22.25 16.390625 -21.789062 17.984375 -20.875 C 19.585938 -19.96875 20.816406 -18.660156 21.671875 -16.953125 C 22.535156 -15.242188 22.96875 -13.242188 22.96875 -10.953125 Z M 22.96875 -10.953125 "/></g></g></g><g fill="#5e8c61" fill-opacity="1"><g transform="translate(263.007276, 213.801665)"><g><path d="M 12.328125 -4.359375 C 13.367188 -4.359375 14.617188 -4.585938 16.078125 -5.046875 L 16.078125 -0.609375 C 14.585938 0.0546875 12.765625 0.390625 10.609375 0.390625 C 8.222656 0.390625 6.484375 -0.207031 5.390625 -1.40625 C 4.304688 -2.613281 3.765625 -4.425781 3.765625 -6.84375 L 3.765625 -17.359375 L 0.921875 -17.359375 L 0.921875 -19.890625 L 4.203125 -21.875 L 5.921875 -26.484375 L 9.734375 -26.484375 L 9.734375 -21.84375 L 15.84375 -21.84375 L 15.84375 -17.359375 L 9.734375 -17.359375 L 9.734375 -6.84375 C 9.734375 -5.988281 9.96875 -5.359375 10.4375 -4.953125 C 10.914062 -4.554688 11.546875 -4.359375 12.328125 -4.359375 Z M 12.328125 -4.359375 "/></g></g></g><g fill="#5e8c61" fill-opacity="1"><g transform="translate(280.368866, 213.801665)"><g><path d="M 12.171875 -18.015625 C 10.910156 -18.015625 9.921875 -17.613281 9.203125 -16.8125 C 8.484375 -16.007812 8.070312 -14.875 7.96875 -13.40625 L 16.328125 -13.40625 C 16.304688 -14.875 15.921875 -16.007812 15.171875 -16.8125 C 14.429688 -17.613281 13.429688 -18.015625 12.171875 -18.015625 Z M 13.015625 0.390625 C 9.492188 0.390625 6.742188 -0.578125 4.765625 -2.515625 C 2.785156 -4.460938 1.796875 -7.210938 1.796875 -10.765625 C 1.796875 -14.421875 2.707031 -17.25 4.53125 -19.25 C 6.363281 -21.25 8.894531 -22.25 12.125 -22.25 C 15.21875 -22.25 17.625 -21.367188 19.34375 -19.609375 C 21.0625 -17.847656 21.921875 -15.421875 21.921875 -12.328125 L 21.921875 -9.4375 L 7.828125 -9.4375 C 7.898438 -7.738281 8.40625 -6.414062 9.34375 -5.46875 C 10.28125 -4.519531 11.59375 -4.046875 13.28125 -4.046875 C 14.59375 -4.046875 15.832031 -4.179688 17 -4.453125 C 18.175781 -4.722656 19.40625 -5.160156 20.6875 -5.765625 L 20.6875 -1.15625 C 19.644531 -0.632812 18.53125 -0.25 17.34375 0 C 16.15625 0.257812 14.710938 0.390625 13.015625 0.390625 Z M 13.015625 0.390625 "/></g></g></g><g fill="#5e8c61" fill-opacity="1"><g transform="translate(303.999368, 213.801665)"><g><path d="M 12 0.390625 C 5.195312 0.390625 1.796875 -3.335938 1.796875 -10.796875 C 1.796875 -14.515625 2.71875 -17.351562 4.5625 -19.3125 C 6.414062 -21.269531 9.066406 -22.25 12.515625 -22.25 C 15.046875 -22.25 17.3125 -21.753906 19.3125 -20.765625 L 17.5625 -16.15625 C 16.625 -16.53125 15.75 -16.835938 14.9375 -17.078125 C 14.132812 -17.316406 13.328125 -17.4375 12.515625 -17.4375 C 9.421875 -17.4375 7.875 -15.238281 7.875 -10.84375 C 7.875 -6.570312 9.421875 -4.4375 12.515625 -4.4375 C 13.660156 -4.4375 14.722656 -4.585938 15.703125 -4.890625 C 16.679688 -5.203125 17.660156 -5.679688 18.640625 -6.328125 L 18.640625 -1.234375 C 17.671875 -0.617188 16.691406 -0.195312 15.703125 0.03125 C 14.722656 0.269531 13.488281 0.390625 12 0.390625 Z M 12 0.390625 "/></g></g></g><g fill="#5e8c61" fill-opacity="1"><g transform="translate(324.563771, 213.801665)"><g><path d="M 17 0 L 15.84375 -2.96875 L 15.6875 -2.96875 C 14.6875 -1.707031 13.65625 -0.832031 12.59375 -0.34375 C 11.53125 0.144531 10.144531 0.390625 8.4375 0.390625 C 6.34375 0.390625 4.691406 -0.207031 3.484375 -1.40625 C 2.285156 -2.601562 1.6875 -4.3125 1.6875 -6.53125 C 1.6875 -8.84375 2.492188 -10.546875 4.109375 -11.640625 C 5.734375 -12.742188 8.179688 -13.359375 11.453125 -13.484375 L 15.234375 -13.59375 L 15.234375 -14.546875 C 15.234375 -16.765625 14.101562 -17.875 11.84375 -17.875 C 10.09375 -17.875 8.039062 -17.347656 5.6875 -16.296875 L 3.71875 -20.3125 C 6.226562 -21.625 9.015625 -22.28125 12.078125 -22.28125 C 15.003906 -22.28125 17.25 -21.640625 18.8125 -20.359375 C 20.375 -19.085938 21.15625 -17.148438 21.15625 -14.546875 L 21.15625 0 Z M 15.234375 -10.125 L 12.9375 -10.046875 C 11.195312 -9.992188 9.90625 -9.679688 9.0625 -9.109375 C 8.21875 -8.535156 7.796875 -7.660156 7.796875 -6.484375 C 7.796875 -4.804688 8.757812 -3.96875 10.6875 -3.96875 C 12.0625 -3.96875 13.160156 -4.363281 13.984375 -5.15625 C 14.816406 -5.945312 15.234375 -7.003906 15.234375 -8.328125 Z M 15.234375 -10.125 "/></g></g></g></svg>