<svg xmlns="http://www.w3.org/2000/svg" xmlns:xlink="http://www.w3.org/1999/xlink" width="500" zoomAndPan="magnify" viewBox="0 0 375 374.999991" height="500" preserveAspectRatio="xMidYMid meet" version="1.0"><defs><g/><clipPath id="c72e3d02e0"><path d="M 28.152344 170.910156 L 93.402344 170.910156 L 93.402344 236.160156 L 28.152344 236.160156 Z M 28.152344 170.910156 " clip-rule="nonzero"/></clipPath></defs><rect x="-37.5" width="450" fill="#ffffff" y="-37.499999" height="449.999989" fill-opacity="1"/><rect x="-37.5" width="450" fill="#ffffff" y="-37.499999" height="449.999989" fill-opacity="1"/><rect x="-37.5" width="450" fill="#ffffff" y="-37.499999" height="449.999989" fill-opacity="1"/><g fill="#94e8b4" fill-opacity="1"><g transform="translate(134.271867, 204.556422)"><g><path d="M -0.429688 3.222656 L -0.429688 3.480469 C 4.230469 3.480469 8.050781 0.601562 8.050781 -3.648438 L 8.050781 -16.039062 C 8.050781 -17.457031 9.019531 -18.316406 10.585938 -18.316406 L 10.585938 -18.507812 L 1.074219 -18.507812 L 1.074219 -18.316406 C 2.640625 -18.316406 3.605469 -17.457031 3.605469 -16.039062 L 3.605469 -6.550781 L 3.628906 -2.253906 C 3.648438 1.460938 3.308594 3.222656 -0.429688 3.222656 Z M -0.429688 3.222656 "/></g></g></g><g fill="#94e8b4" fill-opacity="1"><g transform="translate(145.929402, 204.556422)"><g><path d="M 1.074219 -0.191406 L 1.074219 0 L 16.621094 0 L 18.035156 -4.851562 L 17.84375 -4.851562 C 16.8125 -1.738281 14.277344 -0.191406 10.585938 -0.191406 C 9.019531 -0.191406 8.050781 -1.050781 8.050781 -2.46875 L 8.050781 -9.621094 L 11.273438 -9.621094 C 13.25 -9.554688 13.441406 -7.773438 13.441406 -7.277344 L 13.441406 -7.171875 L 13.636719 -7.171875 L 13.636719 -12.238281 L 13.441406 -12.238281 L 13.441406 -12.132812 C 13.441406 -11.636719 13.25 -9.855469 11.273438 -9.8125 L 8.050781 -9.8125 L 8.074219 -18.316406 L 9.621094 -18.316406 C 14.816406 -18.316406 15.933594 -15.136719 16.148438 -14.042969 L 16.210938 -13.65625 L 16.382812 -13.742188 L 15.652344 -18.507812 L 1.074219 -18.507812 L 1.074219 -18.316406 C 2.640625 -18.316406 3.605469 -17.457031 3.605469 -16.039062 L 3.605469 -2.46875 C 3.605469 -1.050781 2.640625 -0.191406 1.074219 -0.191406 Z M 1.074219 -0.191406 "/></g></g></g><g fill="#94e8b4" fill-opacity="1"><g transform="translate(165.036593, 204.556422)"><g><path d="M 1.074219 -0.191406 L 1.074219 0 L 6.140625 0 L 6.140625 -0.191406 L 6.078125 -0.191406 C 5.710938 -0.214844 3.863281 -0.429688 5.496094 -4.015625 L 6.207031 -5.5625 L 13.335938 -5.5625 L 14.75 -2.449219 C 15.695312 -0.386719 14.128906 -0.214844 13.699219 -0.191406 L 13.59375 -0.191406 L 13.59375 0 L 22.308594 0 L 22.308594 -0.191406 L 22.203125 -0.191406 C 21.773438 -0.214844 20.121094 -0.40625 19.195312 -2.449219 L 11.875 -18.507812 L 9.664062 -13.613281 L 5.28125 -4.015625 C 3.84375 -0.816406 2.167969 -0.277344 1.4375 -0.191406 Z M 13.25 -5.753906 L 6.292969 -5.753906 L 9.769531 -13.378906 Z M 13.25 -5.753906 "/></g></g></g><g fill="#94e8b4" fill-opacity="1"><g transform="translate(188.41607, 204.556422)"><g><path d="M 4.035156 -15.394531 L 17.585938 0 L 17.800781 0 L 17.800781 -16.125 C 17.863281 -18.421875 20.25 -18.292969 20.25 -18.292969 L 20.25 -18.507812 L 15.160156 -18.507812 L 15.160156 -18.316406 C 15.160156 -18.292969 17.542969 -18.421875 17.609375 -16.125 L 17.609375 -6.613281 L 7.105469 -18.507812 L 1.074219 -18.507812 L 1.074219 -18.292969 C 2.597656 -18.292969 3.457031 -17.523438 3.5 -15.695312 L 3.5 -2.363281 C 3.457031 -0.386719 1.652344 -0.214844 1.179688 -0.191406 L 1.074219 -0.191406 L 1.074219 0 L 6.140625 0 L 6.140625 -0.191406 L 6.035156 -0.191406 C 5.539062 -0.214844 3.757812 -0.386719 3.691406 -2.363281 L 3.691406 -15.761719 Z M 4.035156 -15.394531 "/></g></g></g><g fill="#94e8b4" fill-opacity="1"><g transform="translate(209.734546, 204.556422)"><g/></g></g><g fill="#94e8b4" fill-opacity="1"><g transform="translate(222.615798, 204.556422)"><g><path d="M 1.074219 -0.191406 L 1.074219 0 L 11.144531 0 C 14.730469 0 17.90625 -1.417969 17.90625 -5.003906 C 17.90625 -8.308594 15.203125 -9.707031 12.175781 -9.878906 C 14.773438 -10.308594 17.113281 -11.316406 17.113281 -14.171875 C 17.113281 -17.628906 13.851562 -18.507812 10.371094 -18.507812 L 1.074219 -18.507812 L 1.074219 -18.316406 L 1.332031 -18.316406 C 1.976562 -18.292969 3.605469 -18.015625 3.605469 -16.039062 L 3.605469 -2.46875 C 3.605469 -0.515625 2.019531 -0.234375 1.351562 -0.191406 Z M 10.371094 -9.921875 L 8.050781 -9.921875 L 8.050781 -18.316406 L 10.371094 -18.316406 C 11.917969 -18.316406 12.734375 -16.769531 12.734375 -14.171875 C 12.734375 -11.550781 11.917969 -9.921875 10.371094 -9.921875 Z M 11.144531 -0.191406 L 10.199219 -0.191406 C 9.640625 -0.214844 8.050781 -0.449219 8.050781 -2.425781 L 8.050781 -9.707031 L 11.144531 -9.707031 C 12.691406 -9.707031 13.527344 -7.621094 13.527344 -5.003906 C 13.527344 -2.382812 12.691406 -0.191406 11.144531 -0.191406 Z M 11.144531 -0.191406 "/></g></g></g><g fill="#94e8b4" fill-opacity="1"><g transform="translate(241.594175, 204.556422)"><g><path d="M 10.480469 0 C 15.675781 0 19.882812 -4.207031 19.882812 -9.40625 C 19.882812 -14.578125 15.652344 -18.808594 10.480469 -18.808594 C 5.304688 -18.808594 1.074219 -14.578125 1.074219 -9.40625 C 1.074219 -4.292969 5.238281 0 10.480469 0 Z M 10.480469 -0.257812 C 9.148438 -0.257812 5.453125 -0.945312 5.453125 -9.40625 C 5.476562 -17.671875 9.148438 -18.550781 10.480469 -18.550781 C 11.832031 -18.550781 15.503906 -17.671875 15.503906 -9.40625 C 15.503906 -0.945312 11.832031 -0.257812 10.480469 -0.257812 Z M 10.480469 -0.257812 "/></g></g></g><g fill="#94e8b4" fill-opacity="1"><g transform="translate(262.547687, 204.556422)"><g><path d="M 1.074219 -0.191406 L 1.074219 0 L 10.351562 0 L 10.351562 -0.191406 C 8.738281 -0.191406 8.050781 -0.902344 8.050781 -2.425781 L 8.050781 -8.847656 L 10.5 -8.847656 C 12.046875 -8.847656 11.59375 -7.878906 12.882812 -4.574219 C 14.214844 -1.160156 15.738281 0 17.351562 0 L 21.214844 0 L 21.214844 -0.191406 C 19.28125 -0.191406 18.359375 -1.117188 17.265625 -4.574219 C 16.210938 -7.878906 15.203125 -8.847656 12.175781 -9.019531 C 14.773438 -9.449219 17.113281 -10.886719 17.113281 -13.742188 C 17.113281 -17.199219 13.851562 -18.507812 10.371094 -18.507812 L 1.074219 -18.507812 L 1.074219 -18.316406 L 1.332031 -18.316406 C 1.976562 -18.292969 3.605469 -18.015625 3.605469 -16.039062 L 3.605469 -2.46875 C 3.605469 -0.902344 2.683594 -0.191406 1.074219 -0.191406 Z M 10.371094 -9.0625 L 8.050781 -9.0625 L 8.050781 -18.316406 L 10.371094 -18.316406 C 11.917969 -18.316406 12.734375 -16.339844 12.734375 -13.742188 C 12.734375 -11.121094 11.917969 -9.0625 10.371094 -9.0625 Z M 10.371094 -9.0625 "/></g></g></g><g fill="#94e8b4" fill-opacity="1"><g transform="translate(284.832263, 204.556422)"><g><path d="M 10.457031 0 C 11.574219 0 12.625 -0.191406 13.636719 -0.558594 C 15.546875 -1.117188 17.609375 -0.988281 17.671875 -0.191406 L 17.863281 -0.191406 L 17.863281 -5.96875 C 17.90625 -7.320312 18.832031 -8.136719 20.3125 -8.136719 L 20.3125 -8.332031 L 11.058594 -8.332031 L 11.058594 -8.136719 C 12.453125 -8.136719 13.464844 -7.363281 13.484375 -5.949219 L 13.484375 -0.902344 C 12.691406 -0.558594 11.316406 -0.257812 10.457031 -0.257812 C 9.125 -0.257812 5.453125 -1.136719 5.433594 -9.40625 C 5.453125 -17.671875 9.125 -18.550781 10.457031 -18.550781 C 10.863281 -18.550781 11.808594 -18.464844 12.925781 -18.121094 C 15.265625 -17.328125 16.535156 -15.824219 16.597656 -13.550781 L 16.792969 -13.550781 L 16.792969 -18.617188 L 16.597656 -18.617188 C 16.535156 -17.800781 15.652344 -17.652344 13.636719 -18.25 C 12.625 -18.617188 11.574219 -18.808594 10.457031 -18.808594 C 7.988281 -18.808594 5.667969 -17.84375 3.886719 -16.125 C 2.167969 -14.386719 1.203125 -12.28125 1.074219 -9.964844 L 1.074219 -8.890625 C 1.351562 -3.90625 5.496094 0 10.457031 0 Z M 10.457031 0 "/></g></g></g><g fill="#94e8b4" fill-opacity="1"><g transform="translate(306.215146, 204.556422)"><g><path d="M 1.074219 -0.191406 L 1.074219 0 L 16.621094 0 L 18.035156 -4.851562 L 17.84375 -4.851562 C 16.8125 -1.738281 14.277344 -0.191406 10.585938 -0.191406 C 9.019531 -0.191406 8.050781 -1.050781 8.050781 -2.46875 L 8.050781 -9.621094 L 11.273438 -9.621094 C 13.25 -9.554688 13.441406 -7.773438 13.441406 -7.277344 L 13.441406 -7.171875 L 13.636719 -7.171875 L 13.636719 -12.238281 L 13.441406 -12.238281 L 13.441406 -12.132812 C 13.441406 -11.636719 13.25 -9.855469 11.273438 -9.8125 L 8.050781 -9.8125 L 8.074219 -18.316406 L 9.621094 -18.316406 C 14.816406 -18.316406 15.933594 -15.136719 16.148438 -14.042969 L 16.210938 -13.65625 L 16.382812 -13.742188 L 15.652344 -18.507812 L 1.074219 -18.507812 L 1.074219 -18.316406 C 2.640625 -18.316406 3.605469 -17.457031 3.605469 -16.039062 L 3.605469 -2.46875 C 3.605469 -1.050781 2.640625 -0.191406 1.074219 -0.191406 Z M 1.074219 -0.191406 "/></g></g></g><g fill="#94e8b4" fill-opacity="1"><g transform="translate(325.322338, 204.556422)"><g><path d="M 4.359375 -0.515625 C 7.085938 0.515625 10.949219 0.257812 12.777344 -1.566406 C 13.636719 -2.425781 14.277344 -3.972656 14.277344 -5.21875 C 14.277344 -8.996094 11.25 -9.707031 7.730469 -11.875 C 5.667969 -13.140625 4.679688 -14.148438 4.679688 -15.609375 C 4.679688 -17.222656 5.476562 -18.464844 7.988281 -18.464844 C 8.976562 -18.464844 9.898438 -18.207031 10.648438 -17.777344 C 12.582031 -16.535156 12.691406 -12.96875 12.691406 -12.96875 L 12.882812 -12.96875 L 12.882812 -18.058594 L 12.691406 -18.058594 L 12.691406 -17.972656 C 12.605469 -17.15625 10.90625 -17.863281 10.179688 -18.230469 C 9.511719 -18.550781 8.761719 -18.660156 7.988281 -18.660156 C 5.410156 -18.660156 2.921875 -17.265625 1.933594 -15.03125 C 0.835938 -12.582031 1.867188 -11.058594 5.089844 -8.652344 C 7.429688 -6.914062 11.894531 -5.476562 11.808594 -3.070312 C 11.746094 -1.460938 10.585938 -0.0859375 7.472656 -0.0859375 C 4.316406 -0.0859375 1.289062 -2.878906 1.289062 -5.648438 L 1.289062 -6.140625 L 1.09375 -6.140625 L 1.09375 0 L 1.289062 0 L 1.289062 -0.0195312 C 1.289062 -0.964844 1.460938 -1.632812 4.359375 -0.515625 Z M 4.359375 -0.515625 "/></g></g></g><g fill="#94e8b4" fill-opacity="1"><g transform="translate(147.079696, 226.06998)"><g><path d="M 1.417969 0 L 4.140625 0 C 7.464844 0 9.328125 -1.808594 9.328125 -4.976562 C 9.328125 -8.28125 7.515625 -10.105469 4.15625 -10.105469 L 1.417969 -10.105469 Z M 2.867188 -1.332031 L 2.867188 -8.78125 L 4.125 -8.78125 C 6.714844 -8.78125 7.875 -7.566406 7.875 -5.054688 C 7.875 -2.394531 6.265625 -1.332031 3.96875 -1.332031 Z M 2.867188 -1.332031 "/></g></g></g><g fill="#94e8b4" fill-opacity="1"><g transform="translate(157.135299, 226.06998)"><g><path d="M 3.941406 0.121094 C 5.105469 0.121094 5.984375 -0.25 6.765625 -1.074219 L 5.808594 -1.882812 C 5.277344 -1.300781 4.675781 -1.117188 3.941406 -1.117188 C 2.667969 -1.117188 2.058594 -1.996094 1.996094 -3.117188 L 6.9375 -3.117188 C 6.960938 -3.234375 6.980469 -3.488281 6.980469 -3.726562 C 6.980469 -5.351562 6.230469 -7.265625 3.820312 -7.265625 C 1.585938 -7.265625 0.527344 -5.429688 0.527344 -3.539062 C 0.527344 -1.609375 1.628906 0.121094 3.941406 0.121094 Z M 1.996094 -4.167969 C 2.09375 -5.226562 2.640625 -6.113281 3.8125 -6.113281 C 5.019531 -6.113281 5.570312 -5.257812 5.636719 -4.167969 Z M 1.996094 -4.167969 "/></g></g></g><g fill="#94e8b4" fill-opacity="1"><g transform="translate(164.646628, 226.06998)"><g><path d="M 3.191406 0.144531 C 4.476562 0.144531 5.792969 -0.570312 5.792969 -2.136719 C 5.792969 -4.757812 2.046875 -3.992188 2.046875 -5.378906 C 2.046875 -5.84375 2.46875 -6.195312 3.140625 -6.195312 C 3.914062 -6.195312 4.378906 -5.765625 4.65625 -5.226562 L 5.707031 -5.808594 C 5.222656 -6.714844 4.347656 -7.296875 3.191406 -7.296875 C 1.894531 -7.296875 0.742188 -6.585938 0.742188 -5.199219 C 0.742188 -2.730469 4.441406 -3.613281 4.441406 -2.023438 C 4.441406 -1.4375 3.960938 -1 3.152344 -1 C 2.195312 -1 1.714844 -1.625 1.496094 -2.265625 L 0.363281 -1.738281 C 0.699219 -0.714844 1.765625 0.144531 3.191406 0.144531 Z M 3.191406 0.144531 "/></g></g></g><g fill="#94e8b4" fill-opacity="1"><g transform="translate(170.993017, 226.06998)"><g><path d="M 3.941406 0.121094 C 5.105469 0.121094 5.984375 -0.25 6.765625 -1.074219 L 5.808594 -1.882812 C 5.277344 -1.300781 4.675781 -1.117188 3.941406 -1.117188 C 2.667969 -1.117188 2.058594 -1.996094 1.996094 -3.117188 L 6.9375 -3.117188 C 6.960938 -3.234375 6.980469 -3.488281 6.980469 -3.726562 C 6.980469 -5.351562 6.230469 -7.265625 3.820312 -7.265625 C 1.585938 -7.265625 0.527344 -5.429688 0.527344 -3.539062 C 0.527344 -1.609375 1.628906 0.121094 3.941406 0.121094 Z M 1.996094 -4.167969 C 2.09375 -5.226562 2.640625 -6.113281 3.8125 -6.113281 C 5.019531 -6.113281 5.570312 -5.257812 5.636719 -4.167969 Z M 1.996094 -4.167969 "/></g></g></g><g fill="#94e8b4" fill-opacity="1"><g transform="translate(178.504346, 226.06998)"><g><path d="M 1.128906 0 L 2.503906 0 L 2.503906 -3.804688 C 2.503906 -5.328125 3.277344 -6.042969 4.328125 -6.042969 C 5.414062 -6.042969 5.828125 -5.121094 5.828125 -4.164062 L 5.828125 0 L 7.203125 0 L 7.203125 -4.320312 C 7.203125 -5.859375 6.492188 -7.28125 4.714844 -7.28125 C 3.832031 -7.28125 3.023438 -6.867188 2.503906 -6.09375 L 2.503906 -7.144531 L 1.128906 -7.144531 Z M 1.128906 0 "/></g></g></g><g fill="#94e8b4" fill-opacity="1"><g transform="translate(186.644597, 226.06998)"><g><path d="M 2.898438 0 L 4.070312 0 L 6.84375 -7.144531 L 5.355469 -7.144531 L 3.484375 -1.796875 L 1.625 -7.144531 L 0.105469 -7.144531 Z M 2.898438 0 "/></g></g></g><g fill="#94e8b4" fill-opacity="1"><g transform="translate(193.591321, 226.06998)"><g><path d="M 4.003906 0.144531 C 6.109375 0.144531 7.53125 -1.558594 7.53125 -3.589844 C 7.53125 -5.613281 6.109375 -7.296875 4.003906 -7.296875 C 1.894531 -7.296875 0.492188 -5.613281 0.492188 -3.589844 C 0.492188 -1.558594 1.894531 0.144531 4.003906 0.144531 Z M 4.011719 -1.03125 C 2.554688 -1.03125 1.925781 -2.273438 1.925781 -3.589844 C 1.925781 -4.898438 2.554688 -6.113281 4.011719 -6.113281 C 5.476562 -6.113281 6.101562 -4.898438 6.101562 -3.589844 C 6.101562 -2.289062 5.476562 -1.03125 4.011719 -1.03125 Z M 4.011719 -1.03125 "/></g></g></g><g fill="#94e8b4" fill-opacity="1"><g transform="translate(201.617222, 226.06998)"><g><path d="M 2.410156 0.144531 C 2.796875 0.144531 3.238281 0.0703125 3.53125 0 L 3.53125 -1.144531 C 3.363281 -1.109375 3.117188 -1.085938 2.941406 -1.085938 C 2.582031 -1.085938 2.480469 -1.410156 2.480469 -1.523438 L 2.480469 -10.105469 L 1.09375 -10.105469 L 1.09375 -1.429688 C 1.09375 -0.386719 1.453125 0.144531 2.410156 0.144531 Z M 2.410156 0.144531 "/></g></g></g><g fill="#94e8b4" fill-opacity="1"><g transform="translate(205.5051, 226.06998)"><g><path d="M 2.898438 0 L 4.070312 0 L 6.84375 -7.144531 L 5.355469 -7.144531 L 3.484375 -1.796875 L 1.625 -7.144531 L 0.105469 -7.144531 Z M 2.898438 0 "/></g></g></g><g fill="#94e8b4" fill-opacity="1"><g transform="translate(212.451823, 226.06998)"><g><path d="M 3.941406 0.121094 C 5.105469 0.121094 5.984375 -0.25 6.765625 -1.074219 L 5.808594 -1.882812 C 5.277344 -1.300781 4.675781 -1.117188 3.941406 -1.117188 C 2.667969 -1.117188 2.058594 -1.996094 1.996094 -3.117188 L 6.9375 -3.117188 C 6.960938 -3.234375 6.980469 -3.488281 6.980469 -3.726562 C 6.980469 -5.351562 6.230469 -7.265625 3.820312 -7.265625 C 1.585938 -7.265625 0.527344 -5.429688 0.527344 -3.539062 C 0.527344 -1.609375 1.628906 0.121094 3.941406 0.121094 Z M 1.996094 -4.167969 C 2.09375 -5.226562 2.640625 -6.113281 3.8125 -6.113281 C 5.019531 -6.113281 5.570312 -5.257812 5.636719 -4.167969 Z M 1.996094 -4.167969 "/></g></g></g><g fill="#94e8b4" fill-opacity="1"><g transform="translate(219.963153, 226.06998)"><g><path d="M 5.679688 -10.105469 L 5.679688 -6.292969 C 5.191406 -6.945312 4.433594 -7.296875 3.53125 -7.296875 C 1.636719 -7.296875 0.578125 -5.585938 0.578125 -3.574219 C 0.578125 -1.558594 1.636719 0.144531 3.546875 0.144531 C 4.484375 0.144531 5.226562 -0.222656 5.714844 -0.894531 L 5.757812 0 L 7.074219 0 L 7.074219 -10.105469 Z M 3.898438 -1.074219 C 2.566406 -1.074219 1.988281 -2.238281 1.988281 -3.574219 C 1.988281 -4.898438 2.566406 -6.070312 3.898438 -6.070312 C 5.234375 -6.070312 5.792969 -4.90625 5.792969 -3.574219 C 5.792969 -2.222656 5.234375 -1.074219 3.898438 -1.074219 Z M 3.898438 -1.074219 "/></g></g></g><g fill="#94e8b4" fill-opacity="1"><g transform="translate(228.174872, 226.06998)"><g><path d="M 4.003906 0.144531 C 6.109375 0.144531 7.53125 -1.558594 7.53125 -3.589844 C 7.53125 -5.613281 6.109375 -7.296875 4.003906 -7.296875 C 1.894531 -7.296875 0.492188 -5.613281 0.492188 -3.589844 C 0.492188 -1.558594 1.894531 0.144531 4.003906 0.144531 Z M 4.011719 -1.03125 C 2.554688 -1.03125 1.925781 -2.273438 1.925781 -3.589844 C 1.925781 -4.898438 2.554688 -6.113281 4.011719 -6.113281 C 5.476562 -6.113281 6.101562 -4.898438 6.101562 -3.589844 C 6.101562 -2.289062 5.476562 -1.03125 4.011719 -1.03125 Z M 4.011719 -1.03125 "/></g></g></g><g fill="#94e8b4" fill-opacity="1"><g transform="translate(236.200773, 226.06998)"><g><path d="M 1.128906 0 L 2.476562 0 L 2.476562 -3.3125 C 2.476562 -5.078125 3.261719 -5.957031 4.292969 -5.957031 C 4.605469 -5.957031 4.886719 -5.871094 5.121094 -5.691406 L 5.730469 -6.859375 C 5.429688 -7.128906 4.992188 -7.296875 4.503906 -7.296875 C 3.65625 -7.296875 2.832031 -6.78125 2.488281 -5.90625 L 2.488281 -7.144531 L 1.128906 -7.144531 Z M 1.128906 0 "/></g></g></g><g fill="#94e8b4" fill-opacity="1"><g transform="translate(241.953981, 226.06998)"><g/></g></g><g fill="#94e8b4" fill-opacity="1"><g transform="translate(245.656041, 226.06998)"><g><path d="M 1.496094 0 L 2.902344 0 L 2.902344 -5.992188 L 4.777344 -5.992188 L 4.777344 -7.144531 L 2.902344 -7.144531 L 2.902344 -8.117188 C 2.902344 -8.769531 3.261719 -9.046875 3.71875 -9.046875 C 3.949219 -9.046875 4.191406 -8.96875 4.425781 -8.847656 L 4.828125 -9.96875 C 4.46875 -10.140625 4.046875 -10.257812 3.597656 -10.257812 C 2.480469 -10.257812 1.5 -9.570312 1.5 -8.230469 L 1.5 -7.144531 L 0.191406 -7.144531 L 0.191406 -5.992188 L 1.496094 -5.992188 Z M 1.496094 0 "/></g></g></g><g fill="#94e8b4" fill-opacity="1"><g transform="translate(250.537335, 226.06998)"><g><path d="M 1.128906 0 L 2.476562 0 L 2.476562 -3.3125 C 2.476562 -5.078125 3.261719 -5.957031 4.292969 -5.957031 C 4.605469 -5.957031 4.886719 -5.871094 5.121094 -5.691406 L 5.730469 -6.859375 C 5.429688 -7.128906 4.992188 -7.296875 4.503906 -7.296875 C 3.65625 -7.296875 2.832031 -6.78125 2.488281 -5.90625 L 2.488281 -7.144531 L 1.128906 -7.144531 Z M 1.128906 0 "/></g></g></g><g fill="#94e8b4" fill-opacity="1"><g transform="translate(256.290543, 226.06998)"><g><path d="M 4.003906 0.144531 C 6.109375 0.144531 7.53125 -1.558594 7.53125 -3.589844 C 7.53125 -5.613281 6.109375 -7.296875 4.003906 -7.296875 C 1.894531 -7.296875 0.492188 -5.613281 0.492188 -3.589844 C 0.492188 -1.558594 1.894531 0.144531 4.003906 0.144531 Z M 4.011719 -1.03125 C 2.554688 -1.03125 1.925781 -2.273438 1.925781 -3.589844 C 1.925781 -4.898438 2.554688 -6.113281 4.011719 -6.113281 C 5.476562 -6.113281 6.101562 -4.898438 6.101562 -3.589844 C 6.101562 -2.289062 5.476562 -1.03125 4.011719 -1.03125 Z M 4.011719 -1.03125 "/></g></g></g><g fill="#94e8b4" fill-opacity="1"><g transform="translate(264.316444, 226.06998)"><g><path d="M 1.128906 0 L 2.503906 0 L 2.503906 -3.804688 C 2.503906 -5.328125 3.277344 -6.042969 4.328125 -6.042969 C 5.414062 -6.042969 5.828125 -5.121094 5.828125 -4.164062 L 5.828125 0 L 7.203125 0 L 7.203125 -4.320312 C 7.203125 -5.859375 6.492188 -7.28125 4.714844 -7.28125 C 3.832031 -7.28125 3.023438 -6.867188 2.503906 -6.09375 L 2.503906 -7.144531 L 1.128906 -7.144531 Z M 1.128906 0 "/></g></g></g><g fill="#94e8b4" fill-opacity="1"><g transform="translate(272.456695, 226.06998)"><g><path d="M 3.367188 0.144531 C 3.832031 0.144531 4.277344 0.0507812 4.484375 -0.0351562 L 4.484375 -1.265625 C 4.253906 -1.152344 3.933594 -1.042969 3.632812 -1.042969 C 3.148438 -1.042969 2.773438 -1.335938 2.773438 -2.074219 L 2.773438 -5.992188 L 4.585938 -5.992188 L 4.585938 -7.144531 L 2.773438 -7.144531 L 2.773438 -9.949219 L 1.417969 -8.832031 L 1.417969 -7.144531 L 0.25 -7.144531 L 0.25 -5.992188 L 1.402344 -5.992188 L 1.402344 -1.929688 C 1.402344 -0.671875 2.039062 0.144531 3.367188 0.144531 Z M 3.367188 0.144531 "/></g></g></g><g fill="#94e8b4" fill-opacity="1"><g transform="translate(277.5381, 226.06998)"><g><path d="M 3.941406 0.121094 C 5.105469 0.121094 5.984375 -0.25 6.765625 -1.074219 L 5.808594 -1.882812 C 5.277344 -1.300781 4.675781 -1.117188 3.941406 -1.117188 C 2.667969 -1.117188 2.058594 -1.996094 1.996094 -3.117188 L 6.9375 -3.117188 C 6.960938 -3.234375 6.980469 -3.488281 6.980469 -3.726562 C 6.980469 -5.351562 6.230469 -7.265625 3.820312 -7.265625 C 1.585938 -7.265625 0.527344 -5.429688 0.527344 -3.539062 C 0.527344 -1.609375 1.628906 0.121094 3.941406 0.121094 Z M 1.996094 -4.167969 C 2.09375 -5.226562 2.640625 -6.113281 3.8125 -6.113281 C 5.019531 -6.113281 5.570312 -5.257812 5.636719 -4.167969 Z M 1.996094 -4.167969 "/></g></g></g><g fill="#94e8b4" fill-opacity="1"><g transform="translate(285.049429, 226.06998)"><g><path d="M 1.128906 0 L 2.503906 0 L 2.503906 -3.804688 C 2.503906 -5.328125 3.277344 -6.042969 4.328125 -6.042969 C 5.414062 -6.042969 5.828125 -5.121094 5.828125 -4.164062 L 5.828125 0 L 7.203125 0 L 7.203125 -4.320312 C 7.203125 -5.859375 6.492188 -7.28125 4.714844 -7.28125 C 3.832031 -7.28125 3.023438 -6.867188 2.503906 -6.09375 L 2.503906 -7.144531 L 1.128906 -7.144531 Z M 1.128906 0 "/></g></g></g><g fill="#94e8b4" fill-opacity="1"><g transform="translate(293.18968, 226.06998)"><g><path d="M 5.679688 -10.105469 L 5.679688 -6.292969 C 5.191406 -6.945312 4.433594 -7.296875 3.53125 -7.296875 C 1.636719 -7.296875 0.578125 -5.585938 0.578125 -3.574219 C 0.578125 -1.558594 1.636719 0.144531 3.546875 0.144531 C 4.484375 0.144531 5.226562 -0.222656 5.714844 -0.894531 L 5.757812 0 L 7.074219 0 L 7.074219 -10.105469 Z M 3.898438 -1.074219 C 2.566406 -1.074219 1.988281 -2.238281 1.988281 -3.574219 C 1.988281 -4.898438 2.566406 -6.070312 3.898438 -6.070312 C 5.234375 -6.070312 5.792969 -4.90625 5.792969 -3.574219 C 5.792969 -2.222656 5.234375 -1.074219 3.898438 -1.074219 Z M 3.898438 -1.074219 "/></g></g></g><g clip-path="url(#c72e3d02e0)"><path fill="#94e8b4" d="M 93.371094 195 L 93.371094 193.15625 C 93.355469 193.066406 93.34375 192.980469 93.339844 192.894531 C 93.320312 192.820312 93.296875 192.714844 93.289062 192.699219 L 93.328125 192.664062 L 93.328125 192.546875 C 93.328125 192.546875 93.285156 192.367188 93.277344 192.351562 L 93.296875 192.332031 L 93.136719 192.425781 L 92.921875 192.152344 C 92.859375 192.113281 92.625 191.910156 92.570312 191.855469 L 61.578125 171.1875 C 61.335938 171.027344 61.066406 170.945312 60.777344 170.945312 C 60.484375 170.945312 60.214844 171.027344 59.972656 171.1875 L 28.832031 191.949219 L 28.589844 192.148438 C 28.5625 192.207031 28.414062 192.390625 28.378906 192.445312 C 28.339844 192.5625 28.285156 192.667969 28.207031 192.761719 L 28.207031 192.828125 L 28.191406 194.992188 L 28.191406 213.914062 L 28.238281 214.261719 C 28.304688 214.398438 28.359375 214.539062 28.402344 214.679688 C 28.429688 214.703125 28.621094 214.9375 28.644531 214.960938 C 28.777344 215.050781 28.898438 215.148438 29.015625 215.257812 L 59.980469 235.882812 C 60.226562 236.039062 60.496094 236.117188 60.785156 236.117188 C 61.078125 236.117188 61.34375 236.039062 61.589844 235.882812 L 92.730469 215.121094 L 92.96875 214.917969 C 93.027344 214.835938 93.085938 214.753906 93.152344 214.675781 C 93.171875 214.628906 93.285156 214.425781 93.308594 214.378906 C 93.335938 214.332031 93.335938 214.238281 93.355469 214.160156 C 93.359375 214.113281 93.367188 214.066406 93.378906 214.019531 Z M 62.226562 191.144531 L 62.226562 177.496094 C 62.226562 177.222656 62.296875 176.964844 62.4375 176.730469 C 62.578125 176.496094 62.769531 176.316406 63.011719 176.183594 C 63.253906 176.054688 63.511719 176 63.785156 176.011719 C 64.058594 176.027344 64.308594 176.109375 64.535156 176.261719 L 87.46875 191.558594 C 87.910156 191.851562 88.132812 192.261719 88.132812 192.792969 C 88.121094 192.855469 88.105469 192.917969 88.085938 192.976562 C 88.105469 193.035156 88.121094 193.097656 88.132812 193.15625 C 88.132812 193.6875 87.910156 194.097656 87.46875 194.390625 L 77.222656 201.242188 C 76.972656 201.410156 76.699219 201.492188 76.398438 201.492188 C 76.097656 201.492188 75.824219 201.410156 75.574219 201.242188 L 62.875 192.757812 C 62.4375 192.464844 62.214844 192.050781 62.214844 191.523438 Z M 33.429688 192.785156 C 33.429688 192.257812 33.648438 191.851562 34.082031 191.558594 L 57.027344 176.25 C 57.253906 176.097656 57.507812 176.015625 57.78125 176 C 58.054688 175.988281 58.308594 176.042969 58.550781 176.171875 C 58.792969 176.304688 58.984375 176.484375 59.125 176.71875 C 59.265625 176.953125 59.335938 177.207031 59.335938 177.484375 L 59.335938 191.523438 C 59.335938 192.050781 59.113281 192.464844 58.675781 192.757812 L 45.976562 201.242188 C 45.726562 201.410156 45.453125 201.492188 45.152344 201.492188 C 44.855469 201.492188 44.582031 201.410156 44.332031 201.242188 L 34.082031 194.390625 C 33.640625 194.097656 33.417969 193.6875 33.417969 193.15625 C 33.429688 193.09375 33.445312 193.03125 33.464844 192.972656 C 33.445312 192.914062 33.429688 192.855469 33.417969 192.792969 Z M 32.566406 209.910156 C 32.371094 209.910156 32.183594 209.875 32 209.800781 C 31.820312 209.722656 31.660156 209.617188 31.519531 209.476562 C 31.378906 209.339844 31.273438 209.179688 31.199219 208.996094 C 31.121094 208.816406 31.085938 208.625 31.085938 208.429688 L 31.085938 198.640625 C 31.085938 198.367188 31.15625 198.113281 31.296875 197.878906 C 31.4375 197.640625 31.628906 197.460938 31.871094 197.332031 C 32.113281 197.199219 32.371094 197.144531 32.644531 197.15625 C 32.917969 197.171875 33.167969 197.253906 33.394531 197.40625 L 40.722656 202.308594 C 41.152344 202.601562 41.371094 203.011719 41.367188 203.535156 C 41.367188 204.0625 41.148438 204.476562 40.710938 204.769531 L 33.382812 209.667969 C 33.132812 209.835938 32.855469 209.917969 32.554688 209.921875 Z M 59.347656 229.191406 C 59.347656 229.386719 59.308594 229.574219 59.234375 229.757812 C 59.160156 229.941406 59.050781 230.101562 58.914062 230.238281 C 58.773438 230.378906 58.613281 230.484375 58.433594 230.558594 C 58.25 230.636719 58.0625 230.671875 57.863281 230.671875 C 57.5625 230.675781 57.289062 230.59375 57.039062 230.425781 L 34.082031 215.148438 C 33.980469 215.078125 33.890625 215 33.808594 214.910156 C 33.726562 214.820312 33.65625 214.71875 33.597656 214.613281 C 33.542969 214.503906 33.496094 214.390625 33.46875 214.273438 C 33.4375 214.15625 33.421875 214.035156 33.421875 213.914062 C 33.421875 213.789062 33.4375 213.671875 33.46875 213.550781 C 33.496094 213.433594 33.542969 213.320312 33.597656 213.214844 C 33.65625 213.105469 33.726562 213.007812 33.808594 212.917969 C 33.890625 212.824219 33.980469 212.746094 34.082031 212.679688 L 44.335938 205.828125 C 44.585938 205.660156 44.863281 205.578125 45.164062 205.578125 C 45.464844 205.578125 45.738281 205.660156 45.988281 205.828125 L 58.6875 214.324219 C 59.125 214.617188 59.34375 215.03125 59.34375 215.558594 Z M 60.777344 211.949219 C 60.476562 211.949219 60.203125 211.863281 59.953125 211.699219 L 49.59375 204.773438 C 49.15625 204.476562 48.9375 204.0625 48.941406 203.535156 C 48.949219 203.472656 48.964844 203.410156 48.984375 203.351562 C 48.964844 203.289062 48.949219 203.226562 48.941406 203.164062 C 48.9375 202.636719 49.15625 202.226562 49.59375 201.929688 L 59.953125 195.003906 C 60.203125 194.835938 60.476562 194.753906 60.777344 194.753906 C 61.078125 194.753906 61.351562 194.835938 61.601562 195.003906 L 71.960938 201.929688 C 72.402344 202.222656 72.621094 202.636719 72.621094 203.164062 C 72.609375 203.226562 72.59375 203.289062 72.574219 203.351562 C 72.59375 203.410156 72.609375 203.472656 72.621094 203.535156 C 72.621094 204.0625 72.402344 204.476562 71.960938 204.769531 L 61.601562 211.699219 C 61.351562 211.863281 61.078125 211.945312 60.777344 211.949219 Z M 87.46875 215.148438 L 64.519531 230.4375 C 64.269531 230.605469 63.996094 230.691406 63.695312 230.6875 C 63.5 230.6875 63.308594 230.652344 63.128906 230.574219 C 62.945312 230.5 62.785156 230.394531 62.648438 230.253906 C 62.507812 230.113281 62.402344 229.953125 62.324219 229.773438 C 62.25 229.589844 62.210938 229.402344 62.210938 229.207031 L 62.210938 215.5625 C 62.210938 215.035156 62.429688 214.621094 62.871094 214.328125 L 75.574219 205.832031 C 75.824219 205.664062 76.097656 205.578125 76.398438 205.578125 C 76.699219 205.578125 76.976562 205.664062 77.226562 205.832031 L 87.46875 212.679688 C 87.570312 212.746094 87.664062 212.824219 87.746094 212.917969 C 87.828125 213.007812 87.898438 213.105469 87.953125 213.214844 C 88.011719 213.320312 88.054688 213.433594 88.085938 213.550781 C 88.117188 213.671875 88.128906 213.789062 88.128906 213.914062 C 88.128906 214.035156 88.117188 214.15625 88.085938 214.273438 C 88.054688 214.390625 88.011719 214.503906 87.953125 214.613281 C 87.898438 214.71875 87.828125 214.820312 87.746094 214.910156 C 87.664062 215 87.570312 215.078125 87.46875 215.148438 Z M 90.476562 208.4375 C 90.476562 208.632812 90.4375 208.824219 90.363281 209.003906 C 90.285156 209.1875 90.179688 209.347656 90.039062 209.488281 C 89.902344 209.625 89.742188 209.734375 89.558594 209.808594 C 89.378906 209.882812 89.1875 209.921875 88.992188 209.921875 C 88.691406 209.921875 88.414062 209.835938 88.164062 209.664062 L 80.84375 204.765625 C 80.742188 204.699219 80.652344 204.617188 80.574219 204.527344 C 80.492188 204.4375 80.421875 204.339844 80.367188 204.234375 C 80.308594 204.125 80.265625 204.015625 80.238281 203.894531 C 80.207031 203.777344 80.191406 203.660156 80.191406 203.539062 C 80.191406 203.417969 80.207031 203.296875 80.238281 203.179688 C 80.265625 203.0625 80.308594 202.949219 80.367188 202.84375 C 80.421875 202.734375 80.492188 202.636719 80.574219 202.546875 C 80.652344 202.457031 80.742188 202.378906 80.84375 202.308594 L 88.164062 197.40625 C 88.390625 197.253906 88.640625 197.167969 88.914062 197.15625 C 89.1875 197.140625 89.445312 197.199219 89.6875 197.328125 C 89.929688 197.457031 90.121094 197.636719 90.261719 197.875 C 90.40625 198.109375 90.476562 198.363281 90.476562 198.636719 Z M 90.476562 208.4375 " fill-opacity="1" fill-rule="nonzero"/></g><path stroke-linecap="round" transform="matrix(0.00970042, 0.747119, -0.749937, 0.009737, 115.393509, 170.901435)" fill="none" stroke-linejoin="miter" d="M 1.00248 1.001271 L 86.330263 1.000724 " stroke="#94e8b4" stroke-width="2" stroke-opacity="1" stroke-miterlimit="4"/></svg>